<svg width="132" height="61" viewBox="0 0 132 61" fill="none" xmlns="http://www.w3.org/2000/svg">
<path d="M21.9778 27.314C22.3135 27.178 22.5149 27.11 22.6493 26.9059C22.7836 26.7699 22.8508 26.4978 22.8508 26.1577V16.3628C22.8508 16.0227 22.7836 15.8186 22.6493 15.6146C22.5149 15.4785 22.3135 15.3425 21.9778 15.2064V15.1384H30.2376C31.5135 15.1384 32.7223 15.2745 33.8638 15.4785C35.0054 15.6826 36.0799 16.0227 37.0199 16.4988C37.9602 16.975 38.766 17.5872 39.3031 18.3354C39.9076 19.0836 40.1761 19.9679 40.1761 20.9882C40.1761 22.0085 39.9076 22.9608 39.3031 23.777C38.6988 24.5932 37.893 25.2734 36.9529 25.7496C35.9455 26.2257 34.8712 26.6338 33.7295 26.9059C32.5208 27.178 31.3119 27.314 30.1032 27.314H21.9778ZM25.4697 26.5658H30.1704C32.3194 26.5658 33.9982 26.0897 35.3411 25.1374C36.617 24.1851 37.2886 22.8927 37.2886 21.1242C37.2886 19.4917 36.6842 18.1994 35.4755 17.3151C34.2667 16.4308 32.5208 16.0227 30.1704 16.0227H25.4697V26.5658Z" fill="#1B1A3D" style="fill:#1B1A3D;fill:color(display-p3 0.1059 0.1020 0.2392);fill-opacity:1;"/>
<path d="M45.6159 23.5729L43.6685 26.2257C43.5341 26.4298 43.3999 26.6339 43.3999 26.7699C43.3327 26.9059 43.3999 26.974 43.4671 27.11C43.5341 27.178 43.7356 27.246 43.937 27.3141V27.3821H40.9823V27.3141C41.4524 27.178 41.8553 26.9059 42.1912 26.4978L50.6525 14.7983H50.7867L58.7107 26.3618C58.9794 26.7019 59.1136 26.9059 59.248 27.042C59.3823 27.178 59.5837 27.246 59.8524 27.3141V27.3821H55.1516V27.3141C55.5545 27.246 55.756 27.11 55.8232 26.974C55.8904 26.8379 55.756 26.4978 55.4203 26.0217L53.7415 23.5729H45.6159ZM53.2714 22.8247L52.3983 21.6004C51.794 20.7841 51.2568 19.8999 50.6525 19.0156L49.7795 17.7232L46.086 22.8247H53.2714Z" fill="#1B1A3D" style="fill:#1B1A3D;fill:color(display-p3 0.1059 0.1020 0.2392);fill-opacity:1;"/>
<path d="M68.1118 27.7222L59.785 16.2268C59.5835 15.8866 59.382 15.6826 59.1806 15.5465C59.0464 15.4105 58.7777 15.3425 58.509 15.2064V15.1384H63.2098V15.2064C62.8739 15.2745 62.6725 15.4105 62.6054 15.6146C62.5382 15.8186 62.7397 16.0907 63.0083 16.4988L68.9178 24.7293L74.8273 16.2268C75.0287 15.8866 75.0958 15.6826 75.0287 15.5465C74.9615 15.4105 74.7601 15.2745 74.4244 15.2064V15.1384H77.3789V15.2064C77.1775 15.2745 77.0432 15.3425 76.909 15.4105C76.7746 15.4785 76.7076 15.5465 76.6403 15.6146C76.5731 15.6826 76.5061 15.8186 76.3717 16.0227L68.2463 27.7222H68.1118Z" fill="#1B1A3D" style="fill:#1B1A3D;fill:color(display-p3 0.1059 0.1020 0.2392);fill-opacity:1;"/>
<path d="M80.9386 27.314C81.4757 27.178 81.8114 26.9739 82.0129 26.8379C82.2143 26.6338 82.2815 26.3617 82.2815 25.9536V16.6349C82.2815 16.2267 82.2143 15.9547 82.0129 15.7506C81.8114 15.5465 81.4757 15.4105 80.9386 15.2744V15.2064H86.2435V15.2744C85.7064 15.4105 85.3707 15.6146 85.1691 15.7506C84.9676 15.9547 84.8334 16.2267 84.8334 16.6349V25.8856C84.8334 26.2937 84.9676 26.5658 85.1691 26.7699C85.3707 26.9739 85.7064 27.11 86.2435 27.246V27.314H80.9386Z" fill="#1B1A3D" style="fill:#1B1A3D;fill:color(display-p3 0.1059 0.1020 0.2392);fill-opacity:1;"/>
<path d="M92.4886 27.314C92.8243 27.178 93.0258 27.11 93.1602 26.9059C93.2945 26.7699 93.3617 26.4978 93.3617 26.1577V16.3628C93.3617 16.0227 93.2945 15.8186 93.1602 15.6146C93.0258 15.4785 92.8243 15.3425 92.4886 15.2064V15.1384H100.748C102.024 15.1384 103.233 15.2745 104.375 15.4785C105.516 15.6826 106.591 16.0227 107.531 16.4988C108.471 16.975 109.277 17.5872 109.814 18.3354C110.419 19.0836 110.687 19.9679 110.687 20.9882C110.687 22.0085 110.419 22.9608 109.814 23.777C109.21 24.5932 108.404 25.2734 107.464 25.7496C106.456 26.2257 105.382 26.6338 104.24 26.9059C103.032 27.178 101.823 27.314 100.614 27.314H92.4886ZM95.9805 26.5658H100.681C102.83 26.5658 104.509 26.0897 105.852 25.1374C107.128 24.1851 107.799 22.8927 107.799 21.1242C107.799 19.4917 107.195 18.1994 105.986 17.3151C104.778 16.4308 103.032 16.0227 100.681 16.0227H95.9805V26.5658Z" fill="#1B1A3D" style="fill:#1B1A3D;fill:color(display-p3 0.1059 0.1020 0.2392);fill-opacity:1;"/>
<path d="M10.1592 42.3465L4.04829 36.4287C3.77968 36.1566 3.57821 36.0206 3.37676 35.8845C3.17529 35.8165 2.90669 35.6805 2.57092 35.6125V35.5444H7.6074V35.6125C7.33877 35.6805 7.20448 35.7485 7.13732 35.8165C7.07016 35.8845 7.07016 36.0206 7.13732 36.1566C7.20448 36.2927 7.33879 36.4287 7.54024 36.6328L12.1738 41.1221L16.4716 36.5647C16.9416 36.0886 16.8073 35.7485 16.203 35.6125V35.5444H19.2921V35.6125C18.9562 35.6805 18.7548 35.8165 18.6205 35.8845C18.4861 35.9526 18.2846 36.1566 18.0161 36.4287L12.7782 41.9383V42.0063V42.0744V42.1424V42.2104V42.2784V42.3465V42.4145V42.4825V42.5505V42.6185V42.6866V42.7546V42.8226V42.8906V42.9586V43.0267V43.0947V43.1627V43.2307V43.2987V43.3668V43.4348V43.5028V43.5708V43.6388V43.7069V43.7749V43.8429V43.9109V43.9789V44.047V44.115V44.183V44.251V44.319V44.3871V44.4551V44.5231V44.5911V44.6591V44.7272V44.7952V44.8632V44.9312V44.9992V45.0673V45.1353V45.2033V45.2713V45.3393V45.4074V45.4754V45.5434V45.6114V45.6794V45.7475V45.8155V45.8835V45.9515V46.0195V46.0876V46.1556V46.2236V46.2916V46.3596V46.5637C12.7782 46.9718 12.8453 47.2439 13.0468 47.448C13.2482 47.652 13.584 47.7881 14.0541 47.9241V47.9921H9.01761V47.9241C9.48767 47.7881 9.82343 47.652 10.0249 47.448C10.2263 47.2439 10.2935 46.9718 10.2935 46.5637V42.3465H10.1592Z" fill="#1B1A3D" style="fill:#1B1A3D;fill:color(display-p3 0.1059 0.1020 0.2392);fill-opacity:1;"/>
<path d="M31.5811 47.8562C26.2759 47.8562 23.6571 46.2238 23.6571 42.8908V36.7009C23.6571 36.3608 23.5899 36.1568 23.4556 35.9527C23.3212 35.8167 23.1198 35.6806 22.7841 35.5446V35.4766H27.0819V35.5446C26.746 35.6806 26.5446 35.8167 26.4774 35.9527C26.4104 36.0887 26.3431 36.2928 26.3431 36.6329V43.639C26.3431 44.7953 26.8133 45.6796 27.6863 46.2238C28.5593 46.7679 29.9694 47.04 31.7825 47.04C33.6628 47.04 35.0059 46.6999 35.8117 46.0877C36.6175 45.4755 37.0204 44.4552 37.0204 43.2309V36.7009C37.0204 36.3608 36.9534 36.1568 36.8862 36.0207C36.819 35.8847 36.5505 35.7486 36.2818 35.6126V35.5446H39.1693V35.6126C38.8336 35.7486 38.6322 35.8167 38.4978 36.0207C38.3635 36.1568 38.2963 36.4288 38.2963 36.7689V43.1628C38.3635 46.2918 36.0804 47.8562 31.5811 47.8562Z" fill="#1B1A3D" style="fill:#1B1A3D;fill:color(display-p3 0.1059 0.1020 0.2392);fill-opacity:1;"/>
<path d="M52.8011 41.6665C53.6741 41.8026 54.3457 42.0066 54.8828 42.4147C55.4202 42.7548 56.0245 43.367 56.6289 44.1833C57.5019 45.2716 58.1062 46.0198 58.5091 46.4279C58.845 46.8361 59.1807 47.1081 59.4494 47.2442C59.7179 47.3802 60.188 47.5163 60.7253 47.6523V47.7203H59.1135C57.8376 47.7203 56.8975 47.5163 56.2932 47.1762C55.6888 46.8361 54.8828 46.0878 54.01 44.8635C52.9355 43.435 52.1968 42.6188 51.7267 42.2787C51.2567 41.9386 50.5852 41.8026 49.5779 41.8026H47.9661V46.496C47.9661 46.8361 48.0333 47.0401 48.1676 47.1762C48.302 47.3122 48.5705 47.4482 48.9063 47.5843V47.6523H44.4742V47.5843C44.8099 47.4482 45.0114 47.3802 45.1458 47.1762C45.28 47.0401 45.3473 46.768 45.3473 46.4279V36.701C45.3473 36.3609 45.28 36.1569 45.1458 35.9528C45.0114 35.8168 44.8099 35.6807 44.4742 35.5447V35.4767H51.391C53.4055 35.4767 55.0173 35.7488 56.0917 36.2929C57.1662 36.8371 57.7033 37.5853 57.7033 38.6056C57.7033 39.4219 57.2332 40.1021 56.2932 40.6462C55.353 41.2584 54.2115 41.5305 52.8011 41.6665ZM47.8991 41.1904H51.391C53.8086 41.1904 55.0845 40.3741 55.0845 38.8097C55.0845 37.9934 54.7486 37.3812 54.077 36.9731C53.4055 36.565 52.3982 36.3609 51.1895 36.3609H47.9661V41.1904H47.8991Z" fill="#1B1A3D" style="fill:#1B1A3D;fill:color(display-p3 0.1059 0.1020 0.2392);fill-opacity:1;"/>
<path d="M64.4863 47.7204V47.6524C64.822 47.5164 65.0235 47.4484 65.1579 47.2443C65.2921 47.1083 65.3593 46.8362 65.3593 46.4961V36.7012C65.3593 36.3611 65.2921 36.157 65.1579 35.9529C65.0235 35.8169 64.822 35.6809 64.4863 35.5448V35.4768H68.3141L74.9621 44.1154L81.3417 35.4768H84.6994V35.5448C84.3635 35.6809 84.162 35.7489 84.0278 35.9529C83.8936 36.089 83.8263 36.3611 83.8263 36.7012V46.4961C83.8263 46.8362 83.8936 47.0402 84.0278 47.2443C84.162 47.3803 84.3635 47.5164 84.6994 47.6524V47.7204H80.4015V47.6524C80.7374 47.5164 80.9388 47.3803 81.0059 47.2443C81.0731 47.1083 81.1403 46.9042 81.1403 46.5641V37.1773L74.0221 46.9042H73.8877L66.5008 37.2453V46.5641C66.5008 46.9042 66.568 47.1083 66.6353 47.2443C66.7023 47.3803 66.971 47.5164 67.2396 47.6524V47.7204H64.4863Z" fill="#1B1A3D" style="fill:#1B1A3D;fill:color(display-p3 0.1059 0.1020 0.2392);fill-opacity:1;"/>
<path d="M93.4962 43.9111L91.5487 46.5639C91.4145 46.7679 91.2803 46.972 91.2803 47.108C91.2131 47.2441 91.2803 47.3121 91.3473 47.4481C91.4145 47.5161 91.616 47.5842 91.8174 47.6522V47.7202H88.8627V47.6522C89.3328 47.5161 89.7357 47.2441 90.0714 46.8359L98.5999 35.1365H98.7341L106.725 46.6319C106.994 46.972 107.128 47.176 107.263 47.3121C107.397 47.4481 107.598 47.5161 107.867 47.5842V47.6522H103.166V47.5842C103.569 47.5161 103.771 47.3801 103.838 47.2441C103.905 47.108 103.771 46.7679 103.435 46.2918L101.756 43.8431H93.4962V43.9111ZM101.219 43.1629L100.346 41.9385C99.7414 41.1223 99.2042 40.238 98.5999 39.3537L97.7269 38.0613L94.0334 43.1629H101.219Z" fill="#1B1A3D" style="fill:#1B1A3D;fill:color(display-p3 0.1059 0.1020 0.2392);fill-opacity:1;"/>
<path d="M126.603 47.9925L112.836 37.4494V46.4961C112.836 46.8362 112.903 47.0402 113.038 47.1763C113.172 47.3123 113.441 47.4484 113.776 47.5844V47.6524H110.755V47.5844C111.09 47.4484 111.292 47.3803 111.426 47.1763C111.56 47.0402 111.628 46.7682 111.628 46.4281V36.7012C111.628 36.3611 111.56 36.157 111.426 35.9529C111.292 35.8169 111.09 35.6809 110.755 35.5448V35.4768H114.112L125.528 44.1834V36.7012C125.528 36.3611 125.461 36.157 125.327 36.021C125.192 35.8849 124.924 35.7489 124.588 35.6128V35.5448H127.61V35.6128C127.274 35.7489 127.073 35.8169 126.938 36.021C126.804 36.157 126.737 36.4291 126.737 36.7692V48.0605H126.603V47.9925Z" fill="#1B1A3D" style="fill:#1B1A3D;fill:color(display-p3 0.1059 0.1020 0.2392);fill-opacity:1;"/>
</svg>
