<svg width="200" height="21" viewBox="0 0 200 21" fill="none" xmlns="http://www.w3.org/2000/svg">
<path d="M42.7155 16.5573C42.6485 17.2508 42.7313 17.9483 42.9598 18.6064C43.1253 18.8783 43.4563 18.9886 44.1105 19.0162L45.4266 19.095V19.9146C43.9962 19.8634 42.7155 19.8358 41.4585 19.8358C40.2015 19.8358 38.842 19.8358 37.4116 19.9146V19.095L38.7198 19.0162C39.3739 19.0162 39.705 18.8783 39.8705 18.6064C40.099 17.9483 40.1818 17.2508 40.1148 16.5573V10.4534C39.7916 10.4534 39.0508 10.4022 37.849 10.4022H31.4496C30.2477 10.4022 29.5069 10.4022 29.1838 10.4534V16.5573C29.1128 17.2508 29.1956 17.9483 29.4202 18.6064C29.5857 18.8783 29.9088 18.9886 30.563 19.0162L31.8791 19.095V19.9146C30.4566 19.8634 29.1759 19.8358 27.911 19.8358C26.6461 19.8358 25.2945 19.8358 23.8641 19.9146V19.095L25.1802 19.0162C25.8343 19.0162 26.1575 18.8783 26.323 18.6064C26.5554 17.9483 26.6421 17.2508 26.5751 16.5573V4.27077C26.6421 3.57724 26.5554 2.87977 26.323 2.2217C26.1575 1.94981 25.8343 1.83947 25.1802 1.81189L23.8641 1.73308V0.913452C25.2866 0.964679 26.5751 0.992263 27.911 0.992263C29.2468 0.992263 30.4566 0.992262 31.8791 0.913452V1.73308L30.563 1.81189C29.9088 1.81189 29.5857 1.94981 29.4202 2.2217C29.1917 2.87977 29.1089 3.57724 29.1759 4.27077V9.14519C29.499 9.14519 30.2398 9.19642 31.4417 9.19642H37.8411C39.0429 9.19642 39.7838 9.19642 40.1069 9.14519V4.27077C40.1778 3.58118 40.1029 2.87977 39.8783 2.2217C39.7128 1.94981 39.3818 1.83947 38.7277 1.81189L37.4195 1.73308V0.913452C38.842 0.964679 40.1226 0.992263 41.4664 0.992263C42.8101 0.992263 44.0041 0.992262 45.4345 0.913452V1.73308L44.1183 1.81189C43.4642 1.81189 43.1332 1.94981 42.9677 2.2217C42.7391 2.87977 42.6564 3.57724 42.7234 4.27077L42.7155 16.5573Z" fill="#1B1A3D" style="fill:#1B1A3D;fill:color(display-p3 0.1059 0.1020 0.2392);fill-opacity:1;"/>
<path d="M48.339 7.38396C48.3942 6.82834 48.3272 6.26879 48.138 5.7447C48.008 5.52798 47.744 5.44128 47.2672 5.4137L46.219 5.35459V4.70047H49.9152C51.8145 4.70047 53.8321 4.64136 55.0773 4.64136C56.0624 4.64136 57.0475 4.64136 57.9026 4.70047C57.6583 5.79199 57.5401 6.91109 57.5519 8.0302H56.7835V6.66284C56.7835 6.38306 56.7835 6.13875 56.5826 6.07965C55.1876 5.69348 53.7375 5.53586 52.2913 5.61861C51.6727 5.5989 51.054 5.65801 50.4511 5.79199V11.6358C51.1565 11.6358 51.9406 11.7067 52.9967 11.7067C53.7769 11.7737 54.565 11.6909 55.3176 11.4624C55.4398 11.3008 55.5029 11.0999 55.491 10.895L55.5698 9.75221H56.224C56.224 10.6231 56.1649 11.4979 56.1649 12.2899C56.1649 13.0819 56.1649 13.9292 56.224 14.7212H55.5698L55.4635 13.4327C55.4635 13.145 55.3925 12.944 55.2901 12.8849C54.5453 12.6327 53.7533 12.5421 52.9691 12.6248C51.913 12.6248 51.1013 12.6248 50.4235 12.684V18.7878C51.0264 18.9218 51.6451 18.9809 52.2637 18.9612C53.7414 19.0282 55.227 18.9376 56.685 18.6814C57.016 18.508 57.3037 17.5387 57.4534 16.2304H58.1863C57.9539 17.4126 57.8396 18.6105 57.8356 19.8123C56.8663 19.8123 55.1403 19.899 53.4774 19.8833C51.8145 19.8675 50.128 19.8045 48.7685 19.8045C47.8977 19.8045 47.2159 19.8478 46.4318 19.8754V19.2134L47.2159 19.1543C47.74 19.1109 48.0001 19.04 48.0868 18.8233C48.2878 18.3031 48.3705 17.7475 48.3311 17.1919V7.39184L48.339 7.38396Z" fill="#1B1A3D" style="fill:#1B1A3D;fill:color(display-p3 0.1059 0.1020 0.2392);fill-opacity:1;"/>
<path d="M61.2429 7.38393C61.2941 6.82832 61.231 6.27271 61.0498 5.74468C60.9197 5.52795 60.6478 5.45702 60.1237 5.41367L59.1662 5.35456V4.70044C60.1237 4.70044 61.0064 4.75955 61.7827 4.75955C62.1768 4.75955 62.5669 4.75955 62.9609 4.70044L73.423 17.6056H73.4939V7.38787C73.5451 6.83226 73.4742 6.2727 73.293 5.74862C73.1629 5.53189 72.8989 5.46096 72.4221 5.41761L71.4527 5.35851V4.70438C72.3236 4.70438 73.1984 4.76349 73.9904 4.76349C74.7825 4.76349 75.6573 4.76349 76.6069 4.70438V5.35851L75.6297 5.41761C75.1056 5.41761 74.8455 5.53189 74.7588 5.74862C74.5736 6.2727 74.5027 6.83226 74.5579 7.38787V19.4656C74.5579 19.7375 74.6012 20.0133 74.617 20.2773L72.6546 19.9266L62.295 7.1278V17.1879C62.2437 17.7436 62.3068 18.2992 62.4881 18.8272C62.6181 19.0439 62.8821 19.1149 63.4141 19.1582L64.3716 19.2173V19.8793C63.4141 19.8793 62.626 19.8084 61.7551 19.8084C60.8843 19.8084 60.0883 19.8517 59.2174 19.8793V19.2173L60.175 19.1582C60.6991 19.1149 60.967 19.0439 61.101 18.8272C61.2626 18.2952 61.3098 17.7396 61.2389 17.1879V7.38787L61.2429 7.38393Z" fill="#1B1A3D" style="fill:#1B1A3D;fill:color(display-p3 0.1059 0.1020 0.2392);fill-opacity:1;"/>
<path d="M81.4392 17.1843C81.3879 17.74 81.451 18.2956 81.6322 18.8236C81.7623 19.0403 82.0342 19.127 82.5583 19.1546L83.6064 19.2137V19.8757C82.4716 19.8324 81.4431 19.8048 80.4343 19.8048C79.4255 19.8048 78.3419 19.8048 77.1992 19.8757V19.2137L78.2552 19.1782C78.7793 19.1782 79.0394 19.064 79.1261 18.8472C79.327 18.3153 79.4058 17.7478 79.3625 17.1804V7.38033C79.4177 6.82472 79.3546 6.26516 79.1694 5.74108C79.0394 5.52435 78.7754 5.45342 78.2986 5.41007L77.4277 5.35097V4.69684C78.5862 4.69684 79.8511 4.75595 81.1436 4.75595C82.4361 4.75595 83.7089 4.75595 84.9699 4.69684C88.4572 4.62591 89.3911 6.44249 89.3911 7.97535C89.3911 10.3554 87.2475 11.7858 85.1275 12.1956L90.0965 18.6739C90.4314 19.0561 90.924 19.2649 91.4323 19.2413V19.9033C90.857 19.9033 90.3605 19.8324 89.8561 19.8324C89.3517 19.8324 88.871 19.8757 88.3666 19.9033C88.0868 19.4856 87.7558 19.1113 87.4957 18.7172L83.4764 13.3108C83.1178 12.8301 82.708 12.44 82.3337 11.9592L82.4637 11.6991C83.106 11.7425 83.7562 11.711 84.3906 11.6046C85.9629 11.4233 87.1647 10.1229 87.2317 8.54278C87.2317 6.17847 85.4861 5.52435 83.7444 5.52435C82.9917 5.51252 82.243 5.59922 81.514 5.78442L81.4549 17.1804L81.4392 17.1843Z" fill="#1B1A3D" style="fill:#1B1A3D;fill:color(display-p3 0.1059 0.1020 0.2392);fill-opacity:1;"/>
<path d="M97.8042 12.3723L100.046 8.80612C100.917 7.42694 101.686 6.0517 102.411 4.64888H104.156V4.97988C102.091 7.37177 100.291 9.97646 98.7775 12.7506C98.5529 13.2668 98.4504 13.8263 98.4741 14.3898V17.1876C98.4229 17.7432 98.4859 18.2988 98.6672 18.8269C98.7972 19.0436 99.0612 19.1303 99.5932 19.1579L100.641 19.217V19.879C99.5065 19.8356 98.478 19.808 97.4693 19.808C96.4605 19.808 95.369 19.808 94.2341 19.879V19.217L95.2823 19.1579C95.8064 19.1579 96.0664 19.0436 96.2083 18.8269C96.3856 18.2988 96.4526 17.7432 96.4014 17.1876V14.1101C96.4132 13.8066 96.3462 13.5072 96.2083 13.2392L93.5051 8.47118C92.3702 6.50092 91.2551 5.68917 90.7073 5.63007L90.069 5.55914V4.98382L92.587 4.45185C93.0244 4.36516 93.3554 4.80256 93.7297 5.2636C94.0883 5.70888 94.4114 6.18568 94.6873 6.68612L97.816 12.3802L97.8042 12.3723Z" fill="#1B1A3D" style="fill:#1B1A3D;fill:color(display-p3 0.1059 0.1020 0.2392);fill-opacity:1;"/>
<path d="M119.915 5.44883L119.749 3.88838C119.67 3.15545 119.556 2.87567 118.547 2.24913C117.625 1.78021 116.597 1.5556 115.564 1.595C113.413 1.51225 111.604 3.19091 111.521 5.33849C111.521 5.42125 111.521 5.50399 111.521 5.58675C111.521 7.44273 112.621 8.59336 116.037 8.97953C119.891 9.38935 122.322 10.3469 122.322 13.4599C122.322 18.1412 118.137 20.3834 114.067 20.3834C112.451 20.3637 110.859 20.009 109.386 19.347C109.567 17.96 109.634 16.5611 109.579 15.1622H110.45L110.666 16.9945C110.804 18.1452 112.96 19.1815 115.123 19.1815C117.59 19.1815 120.025 17.6723 120.025 14.9691C120.025 12.2659 118.003 11.6315 115.214 11.2966C110.914 10.8079 109.224 9.46421 109.224 6.6231C109.224 2.38704 112.94 0.44043 116.199 0.44043C117.909 0.491656 119.595 0.881768 121.152 1.59106C120.892 2.85991 120.762 4.1524 120.77 5.44489H119.923L119.915 5.44883Z" fill="#1B1A3D" style="fill:#1B1A3D;fill:color(display-p3 0.1059 0.1020 0.2392);fill-opacity:1;"/>
<path d="M136.666 19.0953C135.188 19.8519 133.556 20.2577 131.898 20.2735C126.665 20.2735 123.11 17.2827 123.11 12.3137C123.035 10.0439 124.024 7.86876 125.778 6.42653C127.579 5.01189 129.813 4.27107 132.098 4.32624C133.821 4.34594 135.527 4.63754 137.154 5.19709C136.902 6.28862 136.76 7.39984 136.736 8.51895H136.055V6.96639C136.055 6.35561 135.184 5.98126 134.171 5.61479C133.383 5.36259 132.56 5.2365 131.728 5.24044C127.614 5.24044 125.443 8.23917 125.443 11.963C125.443 16.3212 128.312 19.0953 132.646 19.0953C134.222 19.0874 135.759 18.6303 137.083 17.7792L137.284 17.9959L136.666 19.0953Z" fill="#1B1A3D" style="fill:#1B1A3D;fill:color(display-p3 0.1059 0.1020 0.2392);fill-opacity:1;"/>
<path d="M153.404 17.184C153.353 17.7396 153.416 18.2952 153.598 18.8233C153.728 19.04 153.992 19.1267 154.524 19.1543L155.572 19.2134V19.8754C154.437 19.832 153.408 19.8044 152.4 19.8044C151.391 19.8044 150.299 19.8044 149.165 19.8754V19.2134L150.213 19.1543C150.737 19.1543 151.005 19.04 151.139 18.8233C151.316 18.2952 151.383 17.7396 151.332 17.184V12.3017H142.576V17.184C142.521 17.7396 142.588 18.2992 142.777 18.8233C142.907 19.04 143.171 19.1267 143.691 19.1543L144.747 19.2134V19.8754C143.604 19.832 142.576 19.8044 141.575 19.8044C140.574 19.8044 139.475 19.8044 138.34 19.8754V19.2134L139.388 19.1543C139.912 19.1543 140.172 19.04 140.314 18.8233C140.491 18.2952 140.558 17.7396 140.507 17.184V7.38393C140.558 6.82832 140.495 6.27271 140.314 5.74468C140.176 5.52795 139.912 5.44126 139.388 5.41367L138.34 5.35456V4.70044C139.475 4.70044 140.503 4.75955 141.575 4.75955C142.647 4.75955 143.608 4.75955 144.747 4.70044V5.35456L143.691 5.41367C143.167 5.41367 142.907 5.52795 142.777 5.74468C142.592 6.26877 142.521 6.82832 142.576 7.38393V11.2811H151.332V7.38393C151.383 6.82832 151.32 6.27271 151.139 5.74468C151.009 5.52795 150.737 5.44126 150.213 5.41367L149.165 5.35456V4.70044C150.299 4.70044 151.328 4.75955 152.4 4.75955C153.471 4.75955 154.441 4.75955 155.572 4.70044V5.35456L154.524 5.41367C153.992 5.41367 153.732 5.52795 153.598 5.74468C153.42 6.27271 153.353 6.82832 153.404 7.38393V17.184Z" fill="#1B1A3D" style="fill:#1B1A3D;fill:color(display-p3 0.1059 0.1020 0.2392);fill-opacity:1;"/>
<path d="M158.465 7.38396C158.516 6.82834 158.453 6.27273 158.272 5.7447C158.142 5.52798 157.87 5.44128 157.346 5.4137L156.29 5.35459V4.70047H159.994C161.893 4.70047 163.911 4.64136 165.156 4.64136C166.141 4.64136 167.126 4.64136 167.981 4.70047C167.737 5.79199 167.619 6.91109 167.63 8.0302H166.862V6.66284C166.862 6.38306 166.862 6.13875 166.661 6.07965C165.266 5.69348 163.816 5.53586 162.37 5.61861C161.755 5.5989 161.14 5.65801 160.537 5.79199V11.6358C161.235 11.6358 162.019 11.7067 163.075 11.7067C163.855 11.7737 164.644 11.6909 165.396 11.4624C165.518 11.3008 165.581 11.0999 165.57 10.895L165.676 9.75221H166.302C166.302 10.6231 166.232 11.4979 166.232 12.2899C166.232 13.0819 166.275 13.9292 166.302 14.7212H165.64L165.534 13.4327C165.534 13.145 165.463 12.944 165.361 12.8849C164.616 12.6327 163.824 12.5421 163.04 12.6248C161.984 12.6248 161.172 12.6248 160.502 12.684V18.7878C161.101 18.9218 161.72 18.9809 162.334 18.9612C163.812 19.0282 165.298 18.9376 166.756 18.6814C167.087 18.508 167.374 17.5387 167.524 16.2304H168.292C168.06 17.4126 167.946 18.6105 167.942 19.8123C166.972 19.8123 165.246 19.899 163.627 19.8833C162.007 19.8675 160.199 19.8045 158.859 19.8045C157.988 19.8045 157.306 19.8478 156.522 19.8754V19.2134L157.306 19.1543C157.83 19.1109 158.098 19.04 158.232 18.8233C158.421 18.3031 158.496 17.7475 158.461 17.1919V7.39184L158.465 7.38396Z" fill="#1B1A3D" style="fill:#1B1A3D;fill:color(display-p3 0.1059 0.1020 0.2392);fill-opacity:1;"/>
<path d="M173.608 17.184C173.553 17.7396 173.62 18.2992 173.809 18.8233C173.939 19.04 174.203 19.1267 174.723 19.1543L175.779 19.2134V19.8754C174.636 19.832 173.608 19.8044 172.607 19.8044C171.606 19.8044 170.507 19.8044 169.364 19.8754V19.2134L170.42 19.1543C170.944 19.1543 171.204 19.04 171.291 18.8233C171.496 18.3031 171.582 17.7436 171.543 17.184V7.38393C171.598 6.82832 171.531 6.26877 171.342 5.74468C171.212 5.52795 170.948 5.44126 170.471 5.41367L169.415 5.35456V4.70044C170.558 4.70044 171.586 4.75955 172.658 4.75955C173.73 4.75955 174.691 4.75955 175.83 4.70044V5.35456L174.774 5.41367C174.25 5.41367 173.99 5.52795 173.86 5.74468C173.675 6.26877 173.604 6.82832 173.659 7.38393L173.608 17.184Z" fill="#1B1A3D" style="fill:#1B1A3D;fill:color(display-p3 0.1059 0.1020 0.2392);fill-opacity:1;"/>
<path d="M178.439 7.38393C178.49 6.82832 178.427 6.27271 178.246 5.74468C178.116 5.52795 177.852 5.45702 177.332 5.41367L176.362 5.35456V4.70044C177.332 4.70044 178.203 4.75955 178.979 4.75955C179.373 4.75955 179.763 4.75955 180.157 4.70044L190.619 17.6056H190.726V7.38787C190.781 6.83226 190.714 6.2727 190.525 5.74862C190.395 5.53189 190.131 5.46096 189.61 5.41761L188.653 5.35851V4.70438C189.524 4.70438 190.399 4.76349 191.183 4.76349C191.967 4.76349 192.85 4.76349 193.799 4.70438V5.35851L192.83 5.41761C192.306 5.41761 192.046 5.53189 191.916 5.74862C191.73 6.2727 191.66 6.83226 191.715 7.38787V19.4656C191.715 19.7375 191.715 20.0133 191.786 20.2773L189.815 19.9266L179.499 7.1278H179.456V17.1879C179.405 17.7436 179.468 18.2992 179.649 18.8272C179.779 19.0439 180.051 19.1149 180.575 19.1582L181.532 19.2173V19.8793C180.575 19.8793 179.787 19.8084 178.916 19.8084C178.045 19.8084 177.261 19.8517 176.378 19.8793V19.2173L177.348 19.1582C177.872 19.1149 178.132 19.0439 178.262 18.8272C178.439 18.2992 178.506 17.7436 178.455 17.1879L178.447 7.38787L178.439 7.38393Z" fill="#1B1A3D" style="fill:#1B1A3D;fill:color(display-p3 0.1059 0.1020 0.2392);fill-opacity:1;"/>
<path d="M199.138 6.17009C199.331 7.32466 198.55 8.41618 197.396 8.60927C197.14 8.65261 196.88 8.64867 196.627 8.59745C195.879 8.42801 195.288 7.86057 195.083 7.12369C194.732 6.01247 195.347 4.82637 196.454 4.47567C197.565 4.12496 198.751 4.73968 199.102 5.84696C199.138 5.95336 199.161 6.06369 199.177 6.17403H199.134L199.138 6.17009ZM195.213 6.53656C195.213 7.55715 196.04 8.38466 197.061 8.38466C198.081 8.38466 198.909 7.55715 198.909 6.53656C198.909 5.51596 198.081 4.68845 197.061 4.68845C197.061 4.68845 197.057 4.68845 197.053 4.68845C196.036 4.68845 195.213 5.51202 195.213 6.52868C195.213 6.52868 195.213 6.53261 195.213 6.53656ZM196.958 5.31894C197.36 5.31894 197.829 5.37016 197.829 5.89425C197.829 6.26072 197.514 6.4538 197.183 6.49715C197.443 6.49715 197.601 6.87938 197.687 7.10005C197.735 7.22221 197.798 7.34042 197.869 7.45076C197.932 7.50198 198.014 7.52957 198.097 7.52168V7.6005H197.94C197.817 7.61626 197.691 7.59262 197.581 7.52957C197.471 7.39953 197.388 7.24585 197.337 7.08429C197.278 6.91879 197.199 6.76117 197.1 6.61537C197.006 6.52079 196.848 6.53656 196.726 6.53656H196.62V7.28525C196.62 7.43499 196.62 7.4941 196.785 7.50198H196.907V7.59656H196.036V7.52563H196.123C196.273 7.52563 196.316 7.52562 196.316 7.35224V5.60659C196.316 5.45685 196.229 5.44109 196.123 5.44109H196.028V5.31894H196.954H196.958ZM196.651 6.44198H196.824C197.191 6.44198 197.549 6.35529 197.549 5.91789C197.549 5.4805 197.333 5.42139 197.002 5.42139H196.828C196.655 5.42139 196.663 5.53567 196.663 5.67358L196.655 6.44198H196.651Z" fill="#1B1A3D" style="fill:#1B1A3D;fill:color(display-p3 0.1059 0.1020 0.2392);fill-opacity:1;"/>
<path d="M20.6288 2.02838V0.617676H0.646484V15.7532C3.44425 15.7532 6.49027 13.9406 9.53235 9.1686C12.5744 4.39663 17.039 2.02838 20.6328 2.02838H20.6288Z" fill="#1B1A3D" style="fill:#1B1A3D;fill:color(display-p3 0.1059 0.1020 0.2392);fill-opacity:1;"/>
<path d="M0.646362 18.5274V19.9736H20.6327V4.79468C17.8349 4.79468 14.781 6.6152 11.7468 11.3793C8.7126 16.1394 4.248 18.5274 0.646362 18.5274Z" fill="#1B1A3D" style="fill:#1B1A3D;fill:color(display-p3 0.1059 0.1020 0.2392);fill-opacity:1;"/>
</svg>
