<svg width="150" height="46" viewBox="0 0 150 46" fill="none" xmlns="http://www.w3.org/2000/svg">
<path d="M17.3117 30.3692H25.5764V28.2928H19.7815L19.6711 28.1863V24.1L19.7815 23.9935H24.6106V21.8771H19.7815L19.6711 21.7706V18.0304L19.7815 17.9239H25.5764V15.8208H17.3117V30.3692Z" fill="#1B1A3D" style="fill:#1B1A3D;fill:color(display-p3 0.1059 0.1020 0.2392);fill-opacity:1;"/>
<path d="M37.3052 21.9968C35.2632 21.2913 34.4216 20.8121 34.4216 19.4678C34.4216 18.2432 35.3874 17.6043 36.3808 17.6043C37.3742 17.6043 38.2573 18.2299 38.3401 19.1217H41.0582C41.0996 17.4179 39.568 15.3415 36.2566 15.4081C34.2698 15.448 31.9656 16.8988 31.9656 19.2681C31.9656 21.6374 33.166 22.6756 35.7185 23.5275C38.685 24.5258 38.8644 25.4442 38.8368 26.4558C38.8092 27.3077 38.1883 28.4125 36.8499 28.4657C35.3598 28.5323 34.5043 27.8268 34.4354 26.6422H31.662C31.7862 29.0248 33.9938 30.8749 36.5878 30.8749C39.6922 30.8749 41.2789 28.8384 41.3203 26.6954C41.3617 24.7388 40.865 23.1415 37.2914 21.9968H37.3052Z" fill="#1B1A3D" style="fill:#1B1A3D;fill:color(display-p3 0.1059 0.1020 0.2392);fill-opacity:1;"/>
<path d="M7.99866 22.8222V22.7556C9.00588 22.2365 9.79234 21.3447 9.79234 19.5211C9.79234 18.3631 9.40601 17.5246 8.67474 16.9256C7.7917 16.1136 6.59131 15.8208 4.977 15.8208H4.82523C3.91459 15.8208 1.59661 15.8208 1.16888 15.9007V30.3559C1.638 30.4358 3.96978 30.4624 4.96321 30.4624C7.37777 30.4624 8.27461 30.1962 9.22664 29.3843C9.9993 28.7187 10.3856 27.7071 10.3856 26.4293C10.3856 24.273 9.35082 23.288 8.01246 22.8088L7.99866 22.8222ZM3.51446 18.0037L3.62484 17.8972H5.11498C6.90866 17.8972 7.44676 18.7491 7.44676 19.7607C7.44676 21.0119 6.93625 21.8372 5.22536 21.8372C5.18397 21.8638 3.63864 21.8638 3.63864 21.8638L3.52826 21.744V18.0037H3.51446ZM5.21156 28.2928H3.62484L3.51446 28.1863V24.1L3.62484 23.9935H5.08738C6.74309 23.9935 7.88828 24.7655 7.88828 26.243C7.88828 27.401 7.35018 28.3061 5.21156 28.3061V28.2928Z" fill="#1B1A3D" style="fill:#1B1A3D;fill:color(display-p3 0.1059 0.1020 0.2392);fill-opacity:1;"/>
<path d="M46.2454 17.9237L50.2742 17.9104L50.3846 18.0302V30.3691H52.744V18.0302L52.8544 17.9104L56.8833 17.9237V15.8207H46.2454V17.9237Z" fill="#1B1A3D" style="fill:#1B1A3D;fill:color(display-p3 0.1059 0.1020 0.2392);fill-opacity:1;"/>
<path d="M123.209 30.3691H131.473V28.2661H125.678L125.582 28.1729V24.0998L125.678 23.9934H130.508V21.877H125.678L125.582 21.7705V18.0302L125.678 17.9237H131.473V15.8207H123.209V30.3691Z" fill="#1B1A3D" style="fill:#1B1A3D;fill:color(display-p3 0.1059 0.1020 0.2392);fill-opacity:1;"/>
<path d="M67.135 21.9965C65.093 21.2911 64.2513 20.8119 64.2513 19.4675C64.2513 18.243 65.2172 17.6041 66.2106 17.6041C67.204 17.6041 68.087 18.2296 68.1698 19.1215H70.8879C70.9293 17.4177 69.3978 15.3413 66.0864 15.4078C64.0996 15.4477 61.7954 16.8986 61.7954 19.2679C61.7954 21.6372 62.9957 22.6754 65.5483 23.5272C68.5148 24.5255 68.6941 25.444 68.6665 26.4556C68.6389 27.3075 68.0181 28.4122 66.6797 28.4655C65.1896 28.532 64.3341 27.8266 64.2651 26.6419H61.4918C61.616 29.0245 63.8236 30.8747 66.4175 30.8747C69.522 30.8747 71.1087 28.8382 71.1501 26.6952C71.2191 24.7385 70.6948 23.1412 67.1212 21.9965H67.135Z" fill="#1B1A3D" style="fill:#1B1A3D;fill:color(display-p3 0.1059 0.1020 0.2392);fill-opacity:1;"/>
<path d="M146.912 25.0981C146.457 23.9401 145.878 23.2879 145.188 23.1282V23.0616C146.443 22.5824 147.795 21.7572 147.864 19.6142C147.906 18.536 147.644 17.5644 146.94 16.8988C146.029 16.0736 144.608 15.834 142.718 15.834C141.794 15.834 139.503 15.834 139.075 15.9138V30.3691H141.449V24.2063L141.559 24.0998H142.718C143.794 24.0998 144.181 24.792 144.65 25.777C145.298 27.148 145.602 28.3725 146.195 30.3691H148.775C148.541 29.5971 147.658 27.0681 146.899 25.0981H146.912ZM143.077 21.877H141.545L141.435 21.7705V18.0302L141.545 17.9237H143.049C144.788 17.9237 145.422 19.0019 145.422 19.8538C145.422 21.5575 144.263 21.8903 143.077 21.8637V21.877Z" fill="#1B1A3D" style="fill:#1B1A3D;fill:color(display-p3 0.1059 0.1020 0.2392);fill-opacity:1;"/>
<path d="M110.735 28.1729V15.8207H108.375V30.3691H116.64V28.2927H110.845L110.735 28.1729Z" fill="#1B1A3D" style="fill:#1B1A3D;fill:color(display-p3 0.1059 0.1020 0.2392);fill-opacity:1;"/>
<path d="M78.0762 30.3691H86.3133V28.2661H80.5321L80.4218 28.1729V24.0998L80.5321 23.9934H85.3475V21.877H80.5321L80.4218 21.7705V18.0302L80.5321 17.9237H86.3133V15.8207H78.0762V30.3691Z" fill="#1B1A3D" style="fill:#1B1A3D;fill:color(display-p3 0.1059 0.1020 0.2392);fill-opacity:1;"/>
<path d="M96.4406 28.173V15.8208H94.0674V30.3692H102.36V28.2928L96.5509 28.2662L96.4406 28.173Z" fill="#1B1A3D" style="fill:#1B1A3D;fill:color(display-p3 0.1059 0.1020 0.2392);fill-opacity:1;"/>
</svg>
