<svg width="108" height="58" viewBox="0 0 108 58" fill="none" xmlns="http://www.w3.org/2000/svg">
<path d="M1.70374 38.197H6.66185L8.65497 35.3823H21.7503L23.7434 38.197H28.7345L15.2109 19.4875L1.70374 38.197ZM11.4058 31.5576L15.2109 26.2097L19.0324 31.5576H11.4058Z" fill="#1B1A3D" style="fill:#1B1A3D;fill:color(display-p3 0.1059 0.1020 0.2392);fill-opacity:1;"/>
<path d="M101.689 22.0208C99.432 20.3154 96.2859 19.3882 93.1397 19.3882H92.3161C89.1699 19.3882 86.0237 20.3319 83.767 22.0208C81.3292 23.842 79.8467 26.3256 79.8467 29.0244C79.8467 31.7232 81.3292 34.1902 83.767 36.028C86.0237 37.7334 89.1699 38.6606 92.3161 38.6606H93.1397C96.2859 38.6606 99.432 37.7168 101.689 36.028C104.127 34.2067 105.609 31.7232 105.609 29.0244C105.609 26.3256 104.127 23.8586 101.689 22.0208ZM93.1397 34.6538H92.3161C87.951 34.6538 84.4753 31.9881 84.4753 29.0078C84.4753 26.0276 87.951 23.3619 92.3161 23.3619H93.1397C97.5048 23.3619 100.98 26.0276 100.98 29.0078C100.98 31.9881 97.5048 34.6538 93.1397 34.6538Z" fill="#1B1A3D" style="fill:#1B1A3D;fill:color(display-p3 0.1059 0.1020 0.2392);fill-opacity:1;"/>
<path d="M35.603 19.9181H31.139V38.1639H50.955V34.1903H35.603V19.9181Z" fill="#1B1A3D" style="fill:#1B1A3D;fill:color(display-p3 0.1059 0.1020 0.2392);fill-opacity:1;"/>
<path d="M65.582 19.8846H54.3151V38.1636H65.582C72.6156 38.1636 77.4255 34.2396 77.4255 29.0241C77.4255 23.8087 72.665 19.8846 65.582 19.8846ZM65.582 34.1899H58.8284V23.8583H65.582C70.3424 23.8583 72.6156 26.077 72.6156 29.0241C72.5826 31.9713 70.326 34.1899 65.582 34.1899Z" fill="#1B1A3D" style="fill:#1B1A3D;fill:color(display-p3 0.1059 0.1020 0.2392);fill-opacity:1;"/>
</svg>
