<svg width="144" height="58" viewBox="0 0 144 58" fill="none" xmlns="http://www.w3.org/2000/svg">
<path d="M12.8337 30.7099L8.86631 34.7842C8.1863 35.4825 8.1863 36.6147 8.86631 37.313L9.49335 37.9569C10.1734 38.6552 11.2759 38.6552 11.9559 37.9569L15.9233 33.8827C16.6033 33.1844 16.6033 32.0522 15.9233 31.3538L15.2963 30.7099C14.6163 30.0116 13.5137 30.0116 12.8337 30.7099Z" fill="#1B1A3D" style="fill:#1B1A3D;fill:color(display-p3 0.1059 0.1020 0.2392);fill-opacity:1;"/>
<path d="M18.8155 34.3226C18.1061 33.5941 17.0581 33.5941 16.3487 34.3226L12.4631 38.4784C11.7536 39.2069 11.7536 40.2832 12.4631 41.0117L13.0757 41.6408C13.7851 42.3693 14.8331 42.3693 15.5425 41.6408L19.4282 37.485C20.1376 36.7565 20.1376 35.6803 19.4282 34.9518L18.8155 34.3226Z" fill="#1B1A3D" style="fill:#1B1A3D;fill:color(display-p3 0.1059 0.1020 0.2392);fill-opacity:1;"/>
<path d="M16.4486 27.2452L15.8216 27.8891C15.1416 28.5875 15.1416 29.7197 15.8216 30.418L19.789 34.4922C20.469 35.1905 21.5716 35.1905 22.2516 34.4922L22.8786 33.8483C23.5586 33.15 23.5586 32.0178 22.8786 31.3195L18.9112 27.2452C18.2312 26.5469 17.1287 26.5469 16.4486 27.2452Z" fill="#1B1A3D" style="fill:#1B1A3D;fill:color(display-p3 0.1059 0.1020 0.2392);fill-opacity:1;"/>
<path d="M20.0602 23.54L19.4331 24.1839C18.7531 24.8823 18.7531 26.0145 19.4331 26.7128L23.4006 30.787C24.0806 31.4853 25.1831 31.4853 25.8631 30.787L26.4901 30.1431C27.1702 29.4448 27.1702 28.3126 26.4901 27.6143L22.5227 23.54C21.8427 22.8417 20.7402 22.8417 20.0602 23.54Z" fill="#1B1A3D" style="fill:#1B1A3D;fill:color(display-p3 0.1059 0.1020 0.2392);fill-opacity:1;"/>
<path d="M12.8347 16.4056L8.86726 20.4798C8.18724 21.1782 8.18724 22.3104 8.86726 23.0087L9.49429 23.6526C10.1743 24.3509 11.2768 24.3509 11.9568 23.6526L15.9243 19.5784C16.6043 18.88 16.6043 17.7478 15.9243 17.0495L15.2972 16.4056C14.6172 15.7073 13.5147 15.7073 12.8347 16.4056Z" fill="#1B1A3D" style="fill:#1B1A3D;fill:color(display-p3 0.1059 0.1020 0.2392);fill-opacity:1;"/>
<path d="M16.3496 20.02L12.3821 24.0942C11.7021 24.7925 11.7021 25.9247 12.3821 26.6231L13.0092 27.267C13.6892 27.9653 14.7917 27.9653 15.4717 27.267L19.4392 23.1927C20.1192 22.4944 20.1192 21.3622 19.4392 20.6639L18.8121 20.02C18.1321 19.3217 17.0296 19.3217 16.3496 20.02Z" fill="#1B1A3D" style="fill:#1B1A3D;fill:color(display-p3 0.1059 0.1020 0.2392);fill-opacity:1;"/>
<path d="M5.87652 23.6194L5.24949 24.2633C4.56948 24.9616 4.56948 26.0938 5.24949 26.7921L9.21692 30.8664C9.89693 31.5647 10.9994 31.5647 11.6795 30.8664L12.3065 30.2225C12.9865 29.5241 12.9865 28.3919 12.3065 27.6936L8.33907 23.6194C7.65905 22.9211 6.55654 22.9211 5.87652 23.6194Z" fill="#1B1A3D" style="fill:#1B1A3D;fill:color(display-p3 0.1059 0.1020 0.2392);fill-opacity:1;"/>
<path d="M2.3381 27.3323L1.71107 27.9762C1.03106 28.6745 1.03106 29.8067 1.71107 30.505L5.67849 34.5793C6.3585 35.2776 7.46102 35.2776 8.14103 34.5793L8.76807 33.9353C9.44808 33.237 9.44808 32.1048 8.76807 31.4065L4.80064 27.3323C4.12063 26.6339 3.01812 26.6339 2.3381 27.3323Z" fill="#1B1A3D" style="fill:#1B1A3D;fill:color(display-p3 0.1059 0.1020 0.2392);fill-opacity:1;"/>
<path d="M126.791 22.3684C127.855 22.3684 128.645 21.5571 128.645 20.4644C128.645 19.3716 127.759 18.5603 126.791 18.5603C125.727 18.5603 124.937 19.4709 124.937 20.4644C124.937 21.4578 125.727 22.3684 126.791 22.3684Z" fill="#1B1A3D" style="fill:#1B1A3D;fill:color(display-p3 0.1059 0.1020 0.2392);fill-opacity:1;"/>
<path d="M118.858 25.084C116.746 24.5376 114.634 25.531 113.312 26.2595V17.8485L112.877 17.5836L108.378 18.4943V19.2228C108.378 19.2228 109.168 19.8519 109.265 19.9513C109.797 20.5804 109.797 21.3917 109.797 22.0375V38.0647L109.974 38.1475C112.538 39.5051 115.875 39.6873 118.342 38.6938C121.067 37.5183 122.308 35.5314 122.744 34.0744C123.631 31.8061 123.276 29.5544 122.566 28.2795C121.599 26.5575 120.358 25.4813 118.858 25.1171V25.084ZM118.858 35.8626C118.068 37.2203 116.472 38.0316 115.247 37.6673C114.021 37.303 113.312 35.9454 113.312 33.8592V27.9814C113.312 27.9814 113.392 27.9814 113.489 27.8987C114.279 27.5344 115.698 26.7231 117.536 27.7165C118.503 28.2629 119.293 29.2563 119.648 30.5147C120.083 32.2366 119.826 34.1407 118.858 35.8626Z" fill="#1B1A3D" style="fill:#1B1A3D;fill:color(display-p3 0.1059 0.1020 0.2392);fill-opacity:1;"/>
<path d="M128.645 35.9453V25.0839L128.21 24.819L123.711 25.7296V26.4581C123.711 26.4581 124.502 27.0873 124.598 27.1866C125.13 27.8158 125.13 28.7264 125.13 29.2728V39.0415L130.064 39.1242V38.1308L129.806 38.048C129.097 37.8659 128.661 37.1374 128.661 35.9619L128.645 35.9453Z" fill="#1B1A3D" style="fill:#1B1A3D;fill:color(display-p3 0.1059 0.1020 0.2392);fill-opacity:1;"/>
<path d="M142.221 37.5844L141.963 37.5016C141.785 37.5016 141.431 36.9552 141.431 36.1439V29.7198C141.431 27.8158 140.818 26.3753 139.754 25.6468C138.786 24.9183 137.464 24.8355 135.868 25.3819C134.014 26.011 131.289 28.4615 130.838 29.0079L130.757 29.0906V29.2728C130.757 29.4549 131.015 29.7198 131.112 29.9019L131.193 29.9847H134.272V29.0741C134.272 27.7992 135.062 27.17 135.771 27.0872C136.481 27.0045 136.916 27.0045 137.271 27.2694C137.706 27.6336 137.98 28.5443 137.98 29.9847V30.796L131.547 33.6935L131.467 33.7763V33.8591C130.854 35.6638 131.031 37.1208 131.821 38.1142C133.143 39.654 136.4 39.8362 141.157 38.7434C141.511 38.6606 142.301 38.5613 142.301 38.5613C142.221 38.4785 142.221 37.5678 142.221 37.5678V37.5844ZM138.077 37.2201C137.013 37.9487 135.965 38.0314 135.175 37.4023C134.385 36.6738 134.208 35.4154 134.74 34.1405L138.093 32.2365V37.2201H138.077Z" fill="#1B1A3D" style="fill:#1B1A3D;fill:color(display-p3 0.1059 0.1020 0.2392);fill-opacity:1;"/>
<path d="M69.683 36.3095V17.9312L69.2477 17.6663L64.7494 18.5769V19.3054C64.7494 19.3054 65.5394 19.9346 65.6362 20.0339C66.1682 20.6631 66.1682 21.5737 66.1682 22.1201V39.2235L70.9245 39.3063V38.2135C70.9245 38.2135 69.7798 38.0314 69.683 36.3095Z" fill="#1B1A3D" style="fill:#1B1A3D;fill:color(display-p3 0.1059 0.1020 0.2392);fill-opacity:1;"/>
<path d="M44.4675 36.9387C42.6134 37.8494 40.1466 37.2036 39.3565 36.9387C37.5024 36.1274 35.0356 34.0413 34.3262 30.7795C33.6168 27.3357 34.0682 24.3554 35.7289 22.0871C37.051 20.2824 38.9051 19.1068 41.0978 19.0075C46.3055 18.7426 46.9182 22.5341 47.1762 23.9911L47.2568 24.5375L48.6595 24.4547L48.7401 24.1898C48.8207 24.0077 48.7401 19.024 48.7401 19.024H48.5628C46.628 17.8485 43.0971 17.4014 41.3397 17.4842C36.7607 17.7491 33.4072 19.3883 31.2951 22.2858C29.3603 25.0011 28.7315 28.445 29.6183 31.6074C30.4083 34.687 32.5204 37.0381 35.4387 38.2136C40.2917 40.2005 44.8706 39.207 47.7727 38.0315L47.8533 37.9487C47.8533 37.9487 48.6434 36.2268 48.9175 34.9684C48.9175 34.9684 48.3854 34.1572 48.3048 33.975C47.5954 34.8857 46.0153 36.144 44.4191 36.9553L44.4675 36.9387Z" fill="#1B1A3D" style="fill:#1B1A3D;fill:color(display-p3 0.1059 0.1020 0.2392);fill-opacity:1;"/>
<path d="M57.1559 24.7196C52.9317 24.7196 49.7554 27.882 49.7554 32.0544C49.7554 36.4917 52.6576 39.3891 57.1559 39.3891C59.268 39.3891 61.2027 38.6606 62.5248 37.3029C63.8469 35.8625 64.5563 34.0412 64.5563 32.0544C64.5563 30.0675 63.8469 28.0641 62.6216 26.8058C61.2995 25.4481 59.4453 24.7196 57.1559 24.7196ZM57.1559 37.75C54.4311 37.75 53.6249 35.581 53.6249 31.955C53.6249 29.3225 54.415 26.1601 57.1559 26.1601C59.8968 26.1601 60.6868 29.3225 60.6868 31.955C60.6868 35.581 59.8968 37.75 57.1559 37.75Z" fill="#1B1A3D" style="fill:#1B1A3D;fill:color(display-p3 0.1059 0.1020 0.2392);fill-opacity:1;"/>
<path d="M107.137 35.9454V29.3391C107.137 27.7993 106.347 24.9019 103.428 24.9019C101.219 24.9019 99.8168 26.2595 99.0267 26.988C98.5914 25.9946 97.624 24.9019 95.8505 24.9019C94.4478 24.9019 93.2063 25.4482 91.9649 26.5244V25.1668L91.5296 24.9019L87.0312 25.8125V26.541C87.0312 26.541 87.8213 27.1702 87.918 27.2695C88.4501 27.8987 88.4501 28.8093 88.4501 29.3557V39.0416H93.3837V38.0481L93.1257 37.9654C92.3357 37.7832 91.981 37.1541 91.981 35.8792V28.0974C92.8678 27.3689 93.7384 27.1867 94.6252 27.2861C95.3346 27.3689 96.1246 27.9152 96.1246 30.6306V38.9588H100.978V37.9654L100.72 37.8826C99.9296 37.7004 99.5749 37.0713 99.4782 35.7964V29.1901C99.4782 29.008 99.4782 28.4616 99.3976 28.0974C100.284 27.2861 101.155 27.1867 102.042 27.2861C102.751 27.3689 103.541 27.9152 103.541 30.6306V38.9588H108.394V38.0481C107.604 37.866 107.249 37.1375 107.153 35.962L107.137 35.9454Z" fill="#1B1A3D" style="fill:#1B1A3D;fill:color(display-p3 0.1059 0.1020 0.2392);fill-opacity:1;"/>
<path d="M84.7426 35.9454V25.084L84.3879 24.9019L79.8896 25.8125V26.541C79.8896 26.541 80.6796 27.1702 80.7764 27.2695C81.3084 27.8987 81.3084 28.8093 81.3084 29.3557V35.7798C79.809 36.9554 78.4869 37.3196 77.5195 36.8726C76.8101 36.5083 76.3748 35.5977 76.3748 34.3394V25.1005L76.0201 24.9184L71.5218 25.829V26.5576C71.5218 26.5576 72.3118 27.1867 72.4086 27.2861C73.0212 27.9152 73.0212 28.8259 72.9406 29.3723V34.8857C72.9406 35.9785 73.0212 36.3262 73.118 36.7898C73.3759 37.9654 74.0853 38.7767 75.0527 39.1409C76.6328 39.7701 78.9383 39.1409 81.3084 37.5183V39.0581H86.2421V38.0647H85.9841C85.1941 37.8826 84.7426 37.1541 84.7426 35.9785V35.9454Z" fill="#1B1A3D" style="fill:#1B1A3D;fill:color(display-p3 0.1059 0.1020 0.2392);fill-opacity:1;"/>
</svg>
