<svg width="115" height="18" viewBox="0 0 115 18" fill="none" xmlns="http://www.w3.org/2000/svg">
<path fill-rule="evenodd" clip-rule="evenodd" d="M82.9907 17.0258H84.8009V0.74585H82.9907V17.0258ZM71.5109 11.9756L73.6879 9.69554L79.6682 17.0259H81.9594L75.0625 8.26805L81.9594 1.04428H79.5765L71.5109 9.5677V1.04428H69.5177V17.0259H71.5109V11.9756ZM48.6206 17.0258H50.4308V5.8173H48.6206V17.0258ZM48.5977 3.85694H50.4537V1.89657H48.5977V3.85694ZM54.4404 17.0259H52.6305V5.8173H54.4404V7.69252C54.6696 7.07467 55.7237 5.5617 58.2211 5.5617C61.5893 5.5617 63.1704 7.86298 63.1704 10.6972V17.0259H61.3375V10.7398C61.3375 8.63013 60.123 7.15981 57.9233 7.15981C55.7466 7.15981 54.4404 8.67278 54.4404 10.8249V17.0259ZM96.7385 10.356H88.467C88.7649 8.75793 90.2771 7.11732 92.6142 7.11732C95.0201 7.11732 96.3719 8.67278 96.7385 10.356ZM86.5193 11.4216C86.5193 14.7458 89.1315 17.2816 92.66 17.2816C96.2801 17.2816 98.0676 14.9588 98.5259 13.4246H96.7156C96.2343 14.3623 95.0659 15.7047 92.66 15.7047C90.2541 15.7047 88.4898 13.9999 88.3522 11.8477H98.6861C98.7779 8.18274 96.1429 5.5617 92.6142 5.5617C89.1544 5.5617 86.5193 8.11875 86.5193 11.4216ZM100.451 17.0258H102.261V5.8173H100.451V17.0258ZM100.428 3.85694H102.284V1.89657H100.428V3.85694ZM104.461 17.0259H106.271V10.8249C106.271 8.67278 107.577 7.15981 109.753 7.15981C111.953 7.15981 113.167 8.63013 113.167 10.7398V17.0259H115V10.6972C115 7.86298 113.419 5.5617 110.052 5.5617C107.554 5.5617 106.499 7.07467 106.271 7.69252V5.8173H104.461V17.0259ZM2.26685 9.05636C2.26685 12.7853 5.15382 15.5768 8.9345 15.5768C12.4631 15.5768 14.2044 13.5525 14.7545 12.5511H16.7479C16.2438 14.0851 13.8608 17.3029 8.9345 17.3029C3.96234 17.3029 0.20459 13.8083 0.20459 9.03503C0.20459 4.32583 4.0082 0.767178 8.9345 0.767178C13.8608 0.767178 16.2438 3.92092 16.7937 5.5617H14.7316C14.1129 4.51761 12.3943 2.49326 8.9345 2.49326C5.15382 2.49326 2.26685 5.28476 2.26685 9.05636ZM23.9888 7.15981C26.4862 7.15981 28.3194 9.0137 28.3194 11.4216C28.3194 13.8295 26.4862 15.6835 23.9888 15.6835C21.4684 15.6835 19.6353 13.8295 19.6353 11.4216C19.6353 8.99237 21.4684 7.15981 23.9888 7.15981ZM17.7794 11.4216C17.7794 14.7672 20.4831 17.2816 23.92 17.2816C26.6468 17.2816 27.9069 15.6835 28.2964 14.9161V17.0259H30.1065V5.8173H28.2964V7.92696C27.9298 7.18114 26.6468 5.5617 23.92 5.5617C20.4831 5.5617 17.7794 8.07609 17.7794 11.4216ZM32.3066 17.0258H34.1166V0.74585H32.3066V17.0258ZM45.1377 5.8173L41.3111 15.2998L37.4846 5.8173H35.4913L40.1655 17.0261H42.457L47.1311 5.8173H45.1377Z" fill="#1B1A3D" style="fill:#1B1A3D;fill:color(display-p3 0.1059 0.1020 0.2392);fill-opacity:1;"/>
</svg>
