<svg width="224" height="164" viewBox="0 0 224 164" fill="none" xmlns="http://www.w3.org/2000/svg">
<path d="M143.343 54.2729L148.571 59.5002L153.798 54.2729" stroke="#4F80F3" style="stroke:#4F80F3;stroke:color(display-p3 0.3098 0.5020 0.9529);stroke-opacity:1;" stroke-width="1.5" stroke-linecap="round" stroke-linejoin="round"/>
<path d="M132.889 36.5C132.889 38.1349 132.889 42.5214 132.889 43.6832C132.889 44.8449 133.439 45.9591 134.42 46.7806C135.4 47.6022 136.73 48.0637 138.116 48.0637L144.65 48.0637C145.69 48.0637 146.687 48.4098 147.422 49.0259C148.158 49.6421 148.571 50.4776 148.571 51.349L148.571 58.4545" stroke="#4F80F3" style="stroke:#4F80F3;stroke:color(display-p3 0.3098 0.5020 0.9529);stroke-opacity:1;" stroke-width="1.5" stroke-linecap="square" stroke-linejoin="round"/>
<path d="M105.01 118.007L110.237 123.189L115.464 118.007" stroke="#4F80F3" style="stroke:#4F80F3;stroke:color(display-p3 0.3098 0.5020 0.9529);stroke-opacity:1;" stroke-width="1.5" stroke-linecap="round" stroke-linejoin="round"/>
<path d="M94.5554 100.389C94.5554 102.009 94.5554 106.358 94.5554 107.509C94.5554 108.661 95.1061 109.766 96.0864 110.58C97.0667 111.394 98.3963 111.852 99.7827 111.852L106.317 111.852C107.357 111.852 108.354 112.195 109.089 112.806C109.824 113.416 110.237 114.245 110.237 115.109L110.237 122.152" stroke="#4F80F3" style="stroke:#4F80F3;stroke:color(display-p3 0.3098 0.5020 0.9529);stroke-opacity:1;" stroke-width="1.5" stroke-linecap="square" stroke-linejoin="round"/>
<path d="M17.5 3.99999C17.5 1.79086 19.2909 0 21.5 0H53.2778V35.7778H21.5C19.2909 35.7778 17.5 33.9869 17.5 31.7778V3.99999Z" fill="white" fill-opacity="0.6" style="fill:white;fill-opacity:0.6;"/>
<path d="M53.2778 0H174.5C176.709 0 178.5 1.79086 178.5 4V31.7778C178.5 33.9869 176.709 35.7778 174.5 35.7778H53.2778V0Z" fill="white" fill-opacity="0.25" style="fill:white;fill-opacity:0.25;"/>
<path d="M66.1037 13.4949V22.2222H64.2585V13.4949H66.1037ZM74.9215 13.4949V22.2222H73.3278L69.5309 16.7293H69.467V22.2222H67.6218V13.4949H69.2411L73.0082 18.9835H73.0849V13.4949H74.9215ZM76.1136 15.0162V13.4949H83.2812V15.0162H80.6094V22.2222H78.7855V15.0162H76.1136ZM84.4616 22.2222V13.4949H90.3423V15.0162H86.3068V17.0957H90.0398V18.6171H86.3068V20.7009H90.3594V22.2222H84.4616ZM91.8093 22.2222V13.4949H95.2525C95.9116 13.4949 96.4741 13.6128 96.94 13.8486C97.4087 14.0815 97.7653 14.4125 98.0096 14.8415C98.2567 15.2676 98.3803 15.769 98.3803 16.3457C98.3803 16.9253 98.2553 17.4239 98.0053 17.8415C97.7553 18.2563 97.3931 18.5744 96.9187 18.796C96.4471 19.0176 95.8761 19.1284 95.2056 19.1284H92.9002V17.6455H94.9073C95.2596 17.6455 95.5522 17.5972 95.7852 17.5006C96.0181 17.404 96.1914 17.2591 96.305 17.0659C96.4215 16.8727 96.4798 16.6327 96.4798 16.3457C96.4798 16.056 96.4215 15.8117 96.305 15.6128C96.1914 15.4139 96.0167 15.2634 95.7809 15.1611C95.5479 15.056 95.2539 15.0034 94.8988 15.0034H93.6545V22.2222H91.8093ZM96.5224 18.2506L98.6914 22.2222H96.6545L94.5323 18.2506H96.5224ZM106.984 13.4949V22.2222H105.39L101.593 16.7293H101.529V22.2222H99.6843V13.4949H101.304L105.071 18.9835H105.147V13.4949H106.984ZM110.013 22.2222H108.036L111.048 13.4949H113.426L116.435 22.2222H114.457L112.271 15.4892H112.203L110.013 22.2222ZM109.889 18.7918H114.56V20.2321H109.889V18.7918ZM117.485 22.2222V13.4949H119.33V20.7009H123.072V22.2222H117.485ZM127.071 22.2222V13.4949H130.514C131.176 13.4949 131.74 13.6213 132.206 13.8742C132.672 14.1242 133.027 14.4722 133.271 14.9182C133.518 15.3614 133.642 15.8727 133.642 16.4523C133.642 17.0318 133.517 17.5432 133.267 17.9864C133.017 18.4296 132.655 18.7747 132.18 19.0219C131.709 19.269 131.138 19.3926 130.467 19.3926H128.273V17.9139H130.169C130.524 17.9139 130.817 17.8528 131.047 17.7307C131.28 17.6057 131.453 17.4338 131.567 17.2151C131.683 16.9935 131.741 16.7392 131.741 16.4523C131.741 16.1625 131.683 15.9097 131.567 15.6938C131.453 15.475 131.28 15.306 131.047 15.1867C130.814 15.0645 130.518 15.0034 130.161 15.0034H128.916V22.2222H127.071ZM142.86 17.8585C142.86 18.8102 142.68 19.6199 142.319 20.2875C141.961 20.9551 141.473 21.4651 140.853 21.8173C140.237 22.1668 139.544 22.3415 138.774 22.3415C137.998 22.3415 137.302 22.1653 136.686 21.8131C136.069 21.4608 135.582 20.9509 135.224 20.2832C134.866 19.6156 134.687 18.8074 134.687 17.8585C134.687 16.9068 134.866 16.0972 135.224 15.4296C135.582 14.7619 136.069 14.2534 136.686 13.904C137.302 13.5517 137.998 13.3756 138.774 13.3756C139.544 13.3756 140.237 13.5517 140.853 13.904C141.473 14.2534 141.961 14.7619 142.319 15.4296C142.68 16.0972 142.86 16.9068 142.86 17.8585ZM140.99 17.8585C140.99 17.2421 140.897 16.7222 140.713 16.2989C140.531 15.8756 140.274 15.5546 139.941 15.3358C139.609 15.1171 139.22 15.0077 138.774 15.0077C138.328 15.0077 137.939 15.1171 137.606 15.3358C137.274 15.5546 137.015 15.8756 136.831 16.2989C136.649 16.7222 136.558 17.2421 136.558 17.8585C136.558 18.475 136.649 18.9949 136.831 19.4182C137.015 19.8415 137.274 20.1625 137.606 20.3813C137.939 20.6 138.328 20.7094 138.774 20.7094C139.22 20.7094 139.609 20.6 139.941 20.3813C140.274 20.1625 140.531 19.8415 140.713 19.4182C140.897 18.9949 140.99 18.475 140.99 17.8585ZM148.962 16.0048C148.928 15.6611 148.781 15.394 148.523 15.2037C148.264 15.0134 147.913 14.9182 147.47 14.9182C147.169 14.9182 146.915 14.9608 146.707 15.046C146.5 15.1284 146.341 15.2435 146.23 15.3912C146.122 15.5389 146.068 15.7065 146.068 15.894C146.063 16.0503 146.095 16.1867 146.166 16.3031C146.24 16.4196 146.341 16.5205 146.469 16.6057C146.597 16.6881 146.744 16.7605 146.912 16.823C147.08 16.8827 147.259 16.9338 147.449 16.9764L148.233 17.1639C148.614 17.2492 148.963 17.3628 149.281 17.5048C149.599 17.6469 149.875 17.8216 150.108 18.029C150.341 18.2364 150.521 18.4807 150.649 18.7619C150.78 19.0432 150.847 19.3656 150.849 19.7293C150.847 20.2634 150.71 20.7264 150.44 21.1185C150.173 21.5077 149.787 21.8102 149.281 22.0261C148.778 22.2392 148.172 22.3457 147.462 22.3457C146.757 22.3457 146.143 22.2378 145.621 22.0219C145.101 21.806 144.695 21.4864 144.402 21.0631C144.112 20.6369 143.96 20.11 143.946 19.4821H145.732C145.751 19.7747 145.835 20.019 145.983 20.2151C146.134 20.4082 146.334 20.5546 146.584 20.654C146.837 20.7506 147.122 20.7989 147.44 20.7989C147.753 20.7989 148.024 20.7534 148.254 20.6625C148.487 20.5716 148.668 20.4452 148.795 20.2832C148.923 20.1213 148.987 19.9352 148.987 19.725C148.987 19.529 148.929 19.3642 148.812 19.2307C148.699 19.0972 148.531 18.9835 148.31 18.8898C148.091 18.796 147.822 18.7108 147.504 18.6341L146.554 18.3955C145.818 18.2165 145.237 17.9367 144.811 17.556C144.385 17.1753 144.173 16.6625 144.176 16.0176C144.173 15.4892 144.314 15.0276 144.598 14.6327C144.885 14.2378 145.278 13.9296 145.778 13.708C146.278 13.4864 146.847 13.3756 147.483 13.3756C148.131 13.3756 148.696 13.4864 149.179 13.708C149.665 13.9296 150.043 14.2378 150.312 14.6327C150.582 15.0276 150.722 15.485 150.73 16.0048H148.962ZM151.758 15.0162V13.4949H158.926V15.0162H156.254V22.2222H154.43V15.0162H151.758Z" fill="white" style="fill:white;fill-opacity:1;"/>
<path d="M29.6935 8.94434H41.543C43.3395 8.94434 44.792 10.3969 44.792 12.1934V23.5842C44.792 25.3807 43.3395 26.8332 41.543 26.8332H29.6935C27.897 26.8332 26.4445 25.3807 26.4445 23.5842V12.1934C26.4445 10.4045 27.897 8.94434 29.6935 8.94434Z" fill="#001E36" style="fill:#001E36;fill:color(display-p3 0.0000 0.1176 0.2118);fill-opacity:1;"/>
<path d="M30.5729 21.4904V13.6239C30.5729 13.5703 30.5958 13.5398 30.6493 13.5398C30.7793 13.5398 30.9016 13.5398 31.0774 13.5321C31.2609 13.5245 31.452 13.5245 31.6584 13.5168C31.8649 13.5092 32.0866 13.5092 32.3235 13.5015C32.5605 13.4939 32.7899 13.4939 33.0192 13.4939C33.6461 13.4939 34.1659 13.5703 34.5941 13.7309C34.9763 13.8608 35.328 14.0749 35.6185 14.3578C35.8631 14.6024 36.0542 14.9005 36.1765 15.2293C36.2912 15.5504 36.3524 15.8791 36.3524 16.2231C36.3524 16.8806 36.1995 17.4233 35.8937 17.8514C35.5879 18.2796 35.1598 18.6006 34.6629 18.7841C34.143 18.9752 33.5696 19.044 32.9428 19.044C32.7593 19.044 32.637 19.044 32.5605 19.0364C32.4841 19.0287 32.3771 19.0288 32.2318 19.0288V21.4827C32.2394 21.5363 32.2012 21.5821 32.1477 21.5898C32.1401 21.5898 32.1324 21.5898 32.1171 21.5898H30.6493C30.6035 21.5898 30.5729 21.5592 30.5729 21.4904ZM32.2394 15.0152V17.5839C32.3465 17.5915 32.4459 17.5992 32.5376 17.5992H32.9428C33.2409 17.5992 33.5391 17.5533 33.8219 17.4616C34.0666 17.3928 34.2806 17.2475 34.4488 17.0564C34.6093 16.8653 34.6858 16.6053 34.6858 16.269C34.6934 16.032 34.6323 15.795 34.51 15.5886C34.38 15.3898 34.1965 15.2369 33.9748 15.1528C33.692 15.0382 33.3862 14.9923 33.0727 14.9999C32.874 14.9999 32.6981 14.9999 32.5529 15.0076C32.4 14.9999 32.293 15.0076 32.2394 15.0152Z" fill="#31A8FF" style="fill:#31A8FF;fill:color(display-p3 0.1922 0.6588 1.0000);fill-opacity:1;"/>
<path d="M41.1229 17.1176C40.8936 16.9953 40.6489 16.9112 40.389 16.8577C40.1061 16.7965 39.8233 16.7583 39.5328 16.7583C39.3799 16.7507 39.2193 16.7736 39.0741 16.8118C38.9747 16.8348 38.8906 16.8883 38.8371 16.9647C38.7989 17.0259 38.7759 17.1023 38.7759 17.1711C38.7759 17.2399 38.8065 17.3087 38.8524 17.3699C38.9212 17.454 39.0129 17.5228 39.1123 17.5763C39.2881 17.6681 39.4716 17.7521 39.6551 17.8286C40.0679 17.9662 40.4655 18.1573 40.8324 18.3867C41.0847 18.5472 41.2911 18.7613 41.4363 19.0212C41.5587 19.2658 41.6198 19.5334 41.6122 19.8086C41.6198 20.1679 41.5128 20.5272 41.314 20.8254C41.1 21.1312 40.8018 21.3681 40.4578 21.5058C40.0832 21.6663 39.6245 21.7504 39.0741 21.7504C38.7224 21.7504 38.3784 21.7198 38.0344 21.651C37.7668 21.6051 37.4993 21.521 37.2546 21.4064C37.2011 21.3758 37.1629 21.3223 37.1705 21.2611V19.9309C37.1705 19.908 37.1782 19.8774 37.2011 19.8621C37.224 19.8468 37.247 19.8545 37.2699 19.8698C37.5681 20.0456 37.8815 20.1679 38.2179 20.2444C38.5084 20.3208 38.8142 20.359 39.12 20.359C39.4105 20.359 39.6169 20.3208 39.7545 20.252C39.8768 20.1985 39.9609 20.0685 39.9609 19.9309C39.9609 19.8239 39.8997 19.7245 39.7774 19.6251C39.6551 19.5257 39.4028 19.4111 39.0282 19.2658C38.6383 19.1282 38.279 18.9447 37.9427 18.7154C37.7057 18.5472 37.5069 18.3255 37.3617 18.0656C37.2393 17.8209 37.1782 17.5534 37.1858 17.2858C37.1858 16.9571 37.2776 16.6436 37.4457 16.3608C37.6369 16.055 37.9197 15.8104 38.2485 15.6575C38.6078 15.474 39.0588 15.3899 39.6016 15.3899C39.915 15.3899 40.2361 15.4128 40.5495 15.4587C40.7789 15.4893 41.0006 15.5504 41.207 15.6345C41.2376 15.6422 41.2682 15.6728 41.2834 15.7033C41.2911 15.7339 41.2987 15.7645 41.2987 15.7951V17.0412C41.2987 17.0718 41.2834 17.1023 41.2605 17.1176C41.1917 17.1329 41.1535 17.1329 41.1229 17.1176Z" fill="#31A8FF" style="fill:#31A8FF;fill:color(display-p3 0.1922 0.6588 1.0000);fill-opacity:1;"/>
<path d="M47.2778 68.0002C47.2778 65.7911 49.0687 64.0002 51.2778 64.0002H83.0556V99.778H51.2778C49.0687 99.778 47.2778 97.9872 47.2778 95.778V68.0002Z" fill="white" fill-opacity="0.6" style="fill:white;fill-opacity:0.6;"/>
<path d="M83 64.0002H224V99.7802H83V64.0002Z" fill="white" fill-opacity="0.25" style="fill:white;fill-opacity:0.25;"/>
<path d="M95.8815 77.3841V86.1113H94.0364V77.3841H95.8815ZM104.699 77.3841V86.1113H103.106L99.3087 80.6184H99.2448V86.1113H97.3996V77.3841H99.019L102.786 82.8727H102.863V77.3841H104.699ZM105.891 78.9054V77.3841H113.059V78.9054H110.387V86.1113H108.563V78.9054H105.891ZM114.239 86.1113V77.3841H120.12V78.9054H116.085V80.9849H119.818V82.5062H116.085V84.59H120.137V86.1113H114.239ZM121.587 86.1113V77.3841H125.03C125.689 77.3841 126.252 77.502 126.718 77.7377C127.187 77.9707 127.543 78.3017 127.787 78.7306C128.035 79.1568 128.158 79.6582 128.158 80.2349C128.158 80.8145 128.033 81.313 127.783 81.7306C127.533 82.1454 127.171 82.4636 126.697 82.6852C126.225 82.9068 125.654 83.0176 124.983 83.0176H122.678V81.5346H124.685C125.037 81.5346 125.33 81.4863 125.563 81.3897C125.796 81.2931 125.969 81.1483 126.083 80.9551C126.199 80.7619 126.258 80.5218 126.258 80.2349C126.258 79.9451 126.199 79.7008 126.083 79.502C125.969 79.3031 125.795 79.1525 125.559 79.0502C125.326 78.9451 125.032 78.8926 124.677 78.8926H123.432V86.1113H121.587ZM126.3 82.1397L128.469 86.1113H126.432L124.31 82.1397H126.3ZM136.762 77.3841V86.1113H135.168L131.371 80.6184H131.307V86.1113H129.462V77.3841H131.081L134.848 82.8727H134.925V77.3841H136.762ZM139.791 86.1113H137.813L140.826 77.3841H143.204L146.212 86.1113H144.235L142.049 79.3784H141.981L139.791 86.1113ZM139.667 82.6809H144.337V84.1213H139.667V82.6809ZM147.263 86.1113V77.3841H149.108V84.59H152.85V86.1113H147.263ZM156.849 86.1113V77.3841H160.292C160.954 77.3841 161.518 77.5105 161.984 77.7633C162.45 78.0133 162.805 78.3613 163.049 78.8074C163.296 79.2505 163.42 79.7619 163.42 80.3414C163.42 80.921 163.295 81.4324 163.045 81.8755C162.795 82.3187 162.433 82.6639 161.958 82.911C161.487 83.1582 160.916 83.2818 160.245 83.2818H158.051V81.8031H159.947C160.302 81.8031 160.595 81.742 160.825 81.6199C161.058 81.4949 161.231 81.323 161.345 81.1042C161.461 80.8826 161.519 80.6284 161.519 80.3414C161.519 80.0517 161.461 79.7988 161.345 79.5829C161.231 79.3642 161.058 79.1951 160.825 79.0758C160.592 78.9537 160.296 78.8926 159.938 78.8926H158.694V86.1113H156.849ZM172.638 81.7477C172.638 82.6994 172.458 83.5091 172.097 84.1767C171.739 84.8443 171.25 85.3542 170.631 85.7065C170.015 86.0559 169.322 86.2306 168.552 86.2306C167.776 86.2306 167.08 86.0545 166.464 85.7022C165.847 85.35 165.36 84.84 165.002 84.1724C164.644 83.5048 164.465 82.6966 164.465 81.7477C164.465 80.796 164.644 79.9863 165.002 79.3187C165.36 78.6511 165.847 78.1426 166.464 77.7931C167.08 77.4409 167.776 77.2647 168.552 77.2647C169.322 77.2647 170.015 77.4409 170.631 77.7931C171.25 78.1426 171.739 78.6511 172.097 79.3187C172.458 79.9863 172.638 80.796 172.638 81.7477ZM170.768 81.7477C170.768 81.1312 170.675 80.6113 170.491 80.188C170.309 79.7647 170.052 79.4437 169.719 79.225C169.387 79.0062 168.998 78.8968 168.552 78.8968C168.106 78.8968 167.716 79.0062 167.384 79.225C167.052 79.4437 166.793 79.7647 166.608 80.188C166.427 80.6113 166.336 81.1312 166.336 81.7477C166.336 82.3642 166.427 82.8841 166.608 83.3074C166.793 83.7306 167.052 84.0517 167.384 84.2704C167.716 84.4892 168.106 84.5985 168.552 84.5985C168.998 84.5985 169.387 84.4892 169.719 84.2704C170.052 84.0517 170.309 83.7306 170.491 83.3074C170.675 82.8841 170.768 82.3642 170.768 81.7477ZM178.739 79.894C178.705 79.5502 178.559 79.2832 178.301 79.0929C178.042 78.9025 177.691 78.8074 177.248 78.8074C176.947 78.8074 176.693 78.85 176.485 78.9352C176.278 79.0176 176.119 79.1326 176.008 79.2804C175.9 79.4281 175.846 79.5957 175.846 79.7832C175.84 79.9395 175.873 80.0758 175.944 80.1923C176.018 80.3088 176.119 80.4096 176.247 80.4949C176.374 80.5772 176.522 80.6497 176.69 80.7122C176.857 80.7718 177.036 80.823 177.227 80.8656L178.011 81.0531C178.391 81.1383 178.741 81.252 179.059 81.394C179.377 81.536 179.653 81.7108 179.886 81.9181C180.119 82.1255 180.299 82.3699 180.427 82.6511C180.558 82.9324 180.624 83.2548 180.627 83.6184C180.624 84.1525 180.488 84.6156 180.218 85.0076C179.951 85.3968 179.565 85.6994 179.059 85.9153C178.556 86.1284 177.95 86.2349 177.239 86.2349C176.535 86.2349 175.921 86.127 175.399 85.911C174.879 85.6951 174.472 85.3755 174.18 84.9522C173.89 84.5261 173.738 83.9991 173.724 83.3713H175.509C175.529 83.6639 175.613 83.9082 175.761 84.1042C175.911 84.2974 176.112 84.4437 176.362 84.5431C176.614 84.6397 176.9 84.688 177.218 84.688C177.531 84.688 177.802 84.6426 178.032 84.5517C178.265 84.4608 178.445 84.3343 178.573 84.1724C178.701 84.0105 178.765 83.8244 178.765 83.6142C178.765 83.4181 178.707 83.2534 178.59 83.1199C178.477 82.9863 178.309 82.8727 178.087 82.7789C177.869 82.6852 177.6 82.6 177.282 82.5233L176.332 82.2846C175.596 82.1056 175.015 81.8258 174.589 81.4451C174.163 81.0645 173.951 80.5517 173.954 79.9068C173.951 79.3784 174.092 78.9167 174.376 78.5218C174.663 78.127 175.056 77.8187 175.556 77.5971C176.056 77.3755 176.624 77.2647 177.261 77.2647C177.909 77.2647 178.474 77.3755 178.957 77.5971C179.443 77.8187 179.82 78.127 180.09 78.5218C180.36 78.9167 180.499 79.3741 180.508 79.894H178.739ZM181.536 78.9054V77.3841H188.704V78.9054H186.032V86.1113H184.208V78.9054H181.536ZM195.955 83.0772H197.524L198.312 84.0914L199.087 84.9949L200.549 86.8272H198.828L197.822 85.5914L197.306 84.8585L195.955 83.0772ZM200.681 81.7477C200.681 82.6994 200.501 83.5091 200.14 84.1767C199.782 84.8443 199.293 85.3542 198.674 85.7065C198.058 86.0559 197.364 86.2306 196.595 86.2306C195.819 86.2306 195.123 86.0545 194.507 85.7022C193.89 85.35 193.403 84.84 193.045 84.1724C192.687 83.5048 192.508 82.6966 192.508 81.7477C192.508 80.796 192.687 79.9863 193.045 79.3187C193.403 78.6511 193.89 78.1426 194.507 77.7931C195.123 77.4409 195.819 77.2647 196.595 77.2647C197.364 77.2647 198.058 77.4409 198.674 77.7931C199.293 78.1426 199.782 78.6511 200.14 79.3187C200.501 79.9863 200.681 80.796 200.681 81.7477ZM198.811 81.7477C198.811 81.1312 198.718 80.6113 198.534 80.188C198.352 79.7647 198.095 79.4437 197.762 79.225C197.43 79.0062 197.041 78.8968 196.595 78.8968C196.149 78.8968 195.759 79.0062 195.427 79.225C195.095 79.4437 194.836 79.7647 194.651 80.188C194.47 80.6113 194.379 81.1312 194.379 81.7477C194.379 82.3642 194.47 82.8841 194.651 83.3074C194.836 83.7306 195.095 84.0517 195.427 84.2704C195.759 84.4892 196.149 84.5985 196.595 84.5985C197.041 84.5985 197.43 84.4892 197.762 84.2704C198.095 84.0517 198.352 83.7306 198.534 83.3074C198.718 82.8841 198.811 82.3642 198.811 81.7477ZM209.748 80.4395H207.882C207.848 80.198 207.778 79.9835 207.673 79.796C207.568 79.6056 207.433 79.4437 207.268 79.3102C207.103 79.1767 206.913 79.0744 206.697 79.0034C206.484 78.9324 206.253 78.8968 206.003 78.8968C205.551 78.8968 205.157 79.0091 204.822 79.2335C204.487 79.4551 204.227 79.7789 204.042 80.2051C203.858 80.6284 203.765 81.1426 203.765 81.7477C203.765 82.3699 203.858 82.8926 204.042 83.3159C204.23 83.7392 204.491 84.0588 204.826 84.2747C205.162 84.4906 205.549 84.5985 205.99 84.5985C206.237 84.5985 206.466 84.5659 206.676 84.5005C206.889 84.4352 207.078 84.34 207.243 84.215C207.407 84.0872 207.544 83.9324 207.652 83.7505C207.763 83.5687 207.839 83.3613 207.882 83.1284L209.748 83.1369C209.7 83.5375 209.579 83.9238 209.386 84.296C209.196 84.6653 208.939 84.9963 208.615 85.2889C208.294 85.5787 207.91 85.8088 207.464 85.9792C207.021 86.1468 206.52 86.2306 205.96 86.2306C205.182 86.2306 204.486 86.0545 203.872 85.7022C203.261 85.35 202.778 84.84 202.423 84.1724C202.071 83.5048 201.895 82.6966 201.895 81.7477C201.895 80.796 202.074 79.9863 202.432 79.3187C202.79 78.6511 203.275 78.1426 203.889 77.7931C204.503 77.4409 205.193 77.2647 205.96 77.2647C206.466 77.2647 206.934 77.3358 207.366 77.4778C207.801 77.6199 208.186 77.8272 208.521 78.1C208.856 78.3699 209.129 78.7008 209.339 79.0929C209.552 79.4849 209.689 79.9338 209.748 80.4395Z" fill="white" style="fill:white;fill-opacity:1;"/>
<path fill-rule="evenodd" clip-rule="evenodd" d="M64.9697 74.1119C64.8763 74.187 64.7919 74.2781 64.7203 74.3852L57.7043 84.8841C57.2892 85.5052 57.5307 86.3503 58.2113 86.6583L64.9697 89.7166V74.1119ZM66.4818 89.7173L73.2389 86.6622C73.9196 86.3545 74.1614 85.5093 73.7465 84.8881L66.7321 74.3855C66.6603 74.278 66.5756 74.1866 66.4818 74.1113V89.7173Z" fill="#1B1A3D" style="fill:#1B1A3D;fill:color(display-p3 0.1059 0.1020 0.2392);fill-opacity:1;"/>
<path d="M0 131.778C0 129.569 1.79086 127.778 4 127.778H35.7778V163.556H3.99999C1.79086 163.556 0 161.765 0 159.556V131.778Z" fill="white" fill-opacity="0.6" style="fill:white;fill-opacity:0.6;"/>
<path d="M35.7778 127.778H163.389C165.598 127.778 167.389 129.569 167.389 131.778V159.556C167.389 161.765 165.598 163.556 163.389 163.556H35.7778V127.778Z" fill="white" fill-opacity="0.25" style="fill:white;fill-opacity:0.25;"/>
<path d="M48.2628 150H46.2855L49.2983 141.273H51.6761L54.6847 150H52.7074L50.5213 143.267H50.4531L48.2628 150ZM48.1392 146.57H52.8097V148.01H48.1392V146.57ZM60.2702 143.783C60.2362 143.439 60.0898 143.172 59.8313 142.982C59.5728 142.791 59.2219 142.696 58.7788 142.696C58.4776 142.696 58.2234 142.739 58.016 142.824C57.8086 142.906 57.6495 143.021 57.5387 143.169C57.4308 143.317 57.3768 143.484 57.3768 143.672C57.3711 143.828 57.4038 143.964 57.4748 144.081C57.5487 144.197 57.6495 144.298 57.7773 144.384C57.9052 144.466 58.0529 144.538 58.2205 144.601C58.3881 144.661 58.5671 144.712 58.7575 144.754L59.5415 144.942C59.9222 145.027 60.2717 145.141 60.5898 145.283C60.908 145.425 61.1836 145.599 61.4165 145.807C61.6495 146.014 61.8299 146.259 61.9577 146.54C62.0884 146.821 62.1552 147.143 62.158 147.507C62.1552 148.041 62.0188 148.504 61.7489 148.896C61.4819 149.286 61.0955 149.588 60.5898 149.804C60.087 150.017 59.4805 150.124 58.7702 150.124C58.0657 150.124 57.4521 150.016 56.9293 149.8C56.4094 149.584 56.0032 149.264 55.7106 148.841C55.4208 148.415 55.2688 147.888 55.2546 147.26H57.0401C57.06 147.553 57.1438 147.797 57.2915 147.993C57.4421 148.186 57.6424 148.332 57.8924 148.432C58.1452 148.528 58.4308 148.577 58.7489 148.577C59.0614 148.577 59.3327 148.531 59.5629 148.44C59.7958 148.349 59.9762 148.223 60.104 148.061C60.2319 147.899 60.2958 147.713 60.2958 147.503C60.2958 147.307 60.2376 147.142 60.1211 147.009C60.0075 146.875 59.8398 146.761 59.6183 146.668C59.3995 146.574 59.131 146.489 58.8129 146.412L57.8626 146.173C57.1268 145.994 56.5458 145.714 56.1197 145.334C55.6935 144.953 55.4819 144.44 55.4847 143.795C55.4819 143.267 55.6225 142.805 55.9066 142.411C56.1935 142.016 56.587 141.707 57.087 141.486C57.587 141.264 58.1552 141.153 58.7915 141.153C59.4393 141.153 60.0046 141.264 60.4876 141.486C60.9734 141.707 61.3512 142.016 61.6211 142.411C61.891 142.805 62.0302 143.263 62.0387 143.783H60.2702ZM68.1335 143.783C68.0994 143.439 67.9531 143.172 67.6946 142.982C67.4361 142.791 67.0852 142.696 66.642 142.696C66.3409 142.696 66.0866 142.739 65.8793 142.824C65.6719 142.906 65.5128 143.021 65.402 143.169C65.294 143.317 65.2401 143.484 65.2401 143.672C65.2344 143.828 65.267 143.964 65.3381 144.081C65.4119 144.197 65.5128 144.298 65.6406 144.384C65.7685 144.466 65.9162 144.538 66.0838 144.601C66.2514 144.661 66.4304 144.712 66.6207 144.754L67.4048 144.942C67.7855 145.027 68.1349 145.141 68.4531 145.283C68.7713 145.425 69.0469 145.599 69.2798 145.807C69.5128 146.014 69.6932 146.259 69.821 146.54C69.9517 146.821 70.0185 147.143 70.0213 147.507C70.0185 148.041 69.8821 148.504 69.6122 148.896C69.3452 149.286 68.9588 149.588 68.4531 149.804C67.9503 150.017 67.3438 150.124 66.6335 150.124C65.929 150.124 65.3153 150.016 64.7926 149.8C64.2727 149.584 63.8665 149.264 63.5739 148.841C63.2841 148.415 63.1321 147.888 63.1179 147.26H64.9034C64.9233 147.553 65.0071 147.797 65.1548 147.993C65.3054 148.186 65.5057 148.332 65.7557 148.432C66.0085 148.528 66.294 148.577 66.6122 148.577C66.9247 148.577 67.196 148.531 67.4261 148.44C67.6591 148.349 67.8395 148.223 67.9673 148.061C68.0952 147.899 68.1591 147.713 68.1591 147.503C68.1591 147.307 68.1009 147.142 67.9844 147.009C67.8707 146.875 67.7031 146.761 67.4815 146.668C67.2628 146.574 66.9943 146.489 66.6761 146.412L65.7259 146.173C64.9901 145.994 64.4091 145.714 63.983 145.334C63.5568 144.953 63.3452 144.44 63.348 143.795C63.3452 143.267 63.4858 142.805 63.7699 142.411C64.0568 142.016 64.4503 141.707 64.9503 141.486C65.4503 141.264 66.0185 141.153 66.6548 141.153C67.3026 141.153 67.8679 141.264 68.3509 141.486C68.8366 141.707 69.2145 142.016 69.4844 142.411C69.7543 142.805 69.8935 143.263 69.902 143.783H68.1335ZM71.2624 150V141.273H77.1431V142.794H73.1076V144.874H76.8406V146.395H73.1076V148.479H77.1602V150H71.2624ZM78.2777 142.794V141.273H85.4453V142.794H82.7734V150H80.9496V142.794H78.2777ZM92.4968 150H89.4031V141.273H92.5224C93.4002 141.273 94.1559 141.447 94.7894 141.797C95.4229 142.143 95.9102 142.642 96.2511 143.293C96.5948 143.943 96.7667 144.722 96.7667 145.628C96.7667 146.537 96.5948 147.318 96.2511 147.972C95.9102 148.625 95.4201 149.126 94.7809 149.476C94.1445 149.825 93.3832 150 92.4968 150ZM91.2482 148.419H92.4201C92.9656 148.419 93.4244 148.322 93.7965 148.129C94.1715 147.933 94.4528 147.631 94.6403 147.222C94.8306 146.81 94.9258 146.278 94.9258 145.628C94.9258 144.983 94.8306 144.456 94.6403 144.047C94.4528 143.638 94.1729 143.337 93.8008 143.143C93.4286 142.95 92.9698 142.854 92.4244 142.854H91.2482V148.419ZM98.1335 150V141.273H104.014V142.794H99.9787V144.874H103.712V146.395H99.9787V148.479H104.031V150H98.1335ZM105.481 150V141.273H107.326V148.479H111.068V150H105.481ZM114.135 141.273V150H112.29V141.273H114.135ZM117.23 141.273L119.339 147.903H119.42L121.534 141.273H123.579L120.571 150H118.193L115.18 141.273H117.23ZM124.63 150V141.273H130.51V142.794H126.475V144.874H130.208V146.395H126.475V148.479H130.527V150H124.63ZM131.977 150V141.273H135.42C136.08 141.273 136.642 141.391 137.108 141.626C137.577 141.859 137.933 142.19 138.178 142.619C138.425 143.045 138.548 143.547 138.548 144.124C138.548 144.703 138.423 145.202 138.173 145.619C137.923 146.034 137.561 146.352 137.087 146.574C136.615 146.795 136.044 146.906 135.374 146.906H133.068V145.423H135.075C135.428 145.423 135.72 145.375 135.953 145.278C136.186 145.182 136.359 145.037 136.473 144.844C136.589 144.651 136.648 144.411 136.648 144.124C136.648 143.834 136.589 143.589 136.473 143.391C136.359 143.192 136.185 143.041 135.949 142.939C135.716 142.834 135.422 142.781 135.067 142.781H133.822V150H131.977ZM136.69 146.028L138.859 150H136.822L134.7 146.028H136.69ZM138.978 141.273H141.044L143.034 145.031H143.12L145.11 141.273H147.176L143.993 146.915V150H142.161V146.915L138.978 141.273Z" fill="white" style="fill:white;fill-opacity:1;"/>
<path fill-rule="evenodd" clip-rule="evenodd" d="M17.0903 136.722H13.4029C12.4024 136.748 11.4536 137.353 11.0086 138.25L8.94446 142.226V142.248H17.0903V136.722ZM8.94446 153.235V143.845H26.8333V153.235C26.8333 153.6 26.6883 153.95 26.4303 154.208C26.1722 154.466 25.8222 154.611 25.4573 154.611H10.3205C9.95557 154.611 9.60556 154.466 9.3475 154.208C9.08944 153.95 8.94446 153.6 8.94446 153.235ZM26.8333 142.226V142.248H18.6875V136.722H22.3749C23.3989 136.723 24.3823 137.333 24.8381 138.25L26.8333 142.226ZM14.6945 148.222C14.1652 148.222 13.7361 148.651 13.7361 149.181C13.7361 149.71 14.1652 150.139 14.6945 150.139H21.0833C21.6126 150.139 22.0417 149.71 22.0417 149.181C22.0417 148.651 21.6126 148.222 21.0833 148.222H14.6945Z" fill="#1B1A3D" style="fill:#1B1A3D;fill:color(display-p3 0.1059 0.1020 0.2392);fill-opacity:1;"/>
</svg>
