<svg width="70" height="35" viewBox="0 0 70 35" fill="none" xmlns="http://www.w3.org/2000/svg">
<path d="M20.43 13.5295H14.97C13.56 13.5495 12.43 14.7095 12.45 16.1295V21.5295C12.43 22.9395 13.55 24.1195 14.97 24.1395H20.43C21.84 24.1195 22.97 22.9395 22.95 21.5295V16.1195C22.97 14.7195 21.85 13.5595 20.43 13.5295ZM21.35 20.8495C21.36 21.7595 20.63 22.5095 19.72 22.5395H15.67C14.76 22.5295 14.03 21.7695 14.04 20.8495V16.8495C14.03 15.9395 14.76 15.1895 15.67 15.1595H19.72C20.63 15.1795 21.36 15.9295 21.35 16.8495V20.8495Z" fill="#1B1A3D" style="fill:#1B1A3D;fill:color(display-p3 0.1059 0.1020 0.2392);fill-opacity:1;"/>
<path d="M32.02 13.5295H26.54C25.13 13.5495 24 14.7095 24.02 16.1295V21.5295C24 22.9395 25.12 24.1195 26.54 24.1395H32.02C33.43 24.1195 34.56 22.9395 34.54 21.5295V16.1195C34.56 14.7195 33.44 13.5595 32.02 13.5295ZM32.95 20.8495C32.96 21.7595 32.23 22.5095 31.32 22.5395H27.27C26.36 22.5195 25.64 21.7695 25.65 20.8495V16.8495C25.64 15.9395 26.37 15.1895 27.28 15.1595H31.33C32.23 15.1795 32.96 15.9295 32.95 16.8495V20.8495Z" fill="#1B1A3D" style="fill:#1B1A3D;fill:color(display-p3 0.1059 0.1020 0.2392);fill-opacity:1;"/>
<path d="M55.08 13.5295H49.6C48.19 13.5495 47.06 14.7095 47.08 16.1295V21.5295C47.06 22.9395 48.18 24.0995 49.6 24.1295H55.08C56.49 24.1095 57.62 22.9495 57.6 21.5295V16.1195C57.62 14.7195 56.5 13.5595 55.08 13.5295ZM56 20.8495C56.01 21.7595 55.28 22.5095 54.37 22.5395H50.32C49.41 22.5295 48.68 21.7695 48.69 20.8495V16.8495C48.68 15.9395 49.41 15.1895 50.32 15.1595H54.37C55.28 15.1795 56.01 15.9295 56 16.8495V20.8495Z" fill="#1B1A3D" style="fill:#1B1A3D;fill:color(display-p3 0.1059 0.1020 0.2392);fill-opacity:1;"/>
<path d="M66.65 13.5295H61.17C59.76 13.5495 58.63 14.7095 58.65 16.1295V21.5295C58.63 22.9395 59.75 24.0995 61.17 24.1295H66.65C68.06 24.1095 69.19 22.9495 69.17 21.5295V16.1195C69.18 14.7195 68.07 13.5595 66.65 13.5295ZM67.57 20.8495C67.58 21.7595 66.85 22.5095 65.94 22.5395H61.89C60.98 22.5295 60.25 21.7695 60.26 20.8495V16.8495C60.25 15.9395 60.98 15.1895 61.89 15.1595H65.94C66.85 15.1795 67.58 15.9295 67.57 16.8495V20.8495Z" fill="#1B1A3D" style="fill:#1B1A3D;fill:color(display-p3 0.1059 0.1020 0.2392);fill-opacity:1;"/>
<path d="M8.79998 13.5296H3.32998C3.01998 13.5296 2.72998 13.5996 2.43998 13.7096V8.23962H0.829976V21.5396C0.809976 22.9496 1.92998 24.1096 3.34998 24.1396H8.78998C10.2 24.1196 11.33 22.9396 11.31 21.5296V16.1196C11.33 14.7096 10.22 13.5496 8.79998 13.5196V13.5296ZM9.71998 20.8496C9.72998 21.7596 8.99998 22.5096 8.08998 22.5396H4.02998C3.11998 22.5296 2.38998 21.7696 2.39998 20.8496V16.8496C2.39998 15.9496 3.11998 15.2096 4.02998 15.1896H8.07998C8.98998 15.2096 9.71998 15.9496 9.71998 16.8496V20.8496Z" fill="#1B1A3D" style="fill:#1B1A3D;fill:color(display-p3 0.1059 0.1020 0.2392);fill-opacity:1;"/>
<path d="M43.6 13.5796H38.1C37.79 13.5796 37.5 13.6496 37.21 13.7596V8.28955H35.6V24.1596H37.21V24.0196C37.21 23.3795 37.18 16.9596 37.18 16.8996C37.18 15.9996 37.9 15.2596 38.81 15.2396H42.86C43.77 15.2496 44.5 16.0096 44.49 16.9296V24.1695H46.11V16.1996C46.14 14.7896 45.02 13.6096 43.6 13.5796Z" fill="#1B1A3D" style="fill:#1B1A3D;fill:color(display-p3 0.1059 0.1020 0.2392);fill-opacity:1;"/>
</svg>
