<svg width="20" height="21" viewBox="0 0 20 21" fill="none" xmlns="http://www.w3.org/2000/svg">
<path d="M14.1094 14.7824C14.8666 16.088 15.6154 17.3789 16.3636 18.6683C13.0504 21.1888 7.89553 21.4934 4.07953 18.5908C-0.311859 15.2481 -1.03362 9.54428 1.31746 5.43846C4.02154 0.715886 9.08177 -0.328541 12.3398 0.437297C12.2517 0.627498 10.3004 4.64997 10.3004 4.64997C10.3004 4.64997 10.1461 4.66004 10.0589 4.66171C9.09585 4.70227 8.37859 4.92492 7.60981 5.31987C6.76636 5.75718 6.04354 6.39312 5.50455 7.1721C4.96555 7.95107 4.62677 8.84936 4.51783 9.78847C4.40415 10.7409 4.53669 11.7063 4.90292 12.5936C5.21256 13.3438 5.65058 14.0101 6.23779 14.5726C7.13858 15.4363 8.21053 15.9711 9.45307 16.1482C10.6297 16.316 11.7614 16.1498 12.8218 15.6204C13.2195 15.422 13.5579 15.203 13.9534 14.9026C14.0038 14.8702 14.0485 14.8291 14.1094 14.7824Z" fill="#1B1A3D" style="fill:#1B1A3D;fill:color(display-p3 0.1059 0.1020 0.2392);fill-opacity:1;"/>
<path d="M14.088 3.41647C13.9042 3.23616 13.7339 3.0698 13.5644 2.90238C13.4633 2.80256 13.3659 2.69872 13.2623 2.60132C13.2252 2.56617 13.1816 2.51815 13.1816 2.51815C13.1816 2.51815 13.2168 2.44355 13.2319 2.41297C13.4302 2.01613 13.7409 1.72607 14.1095 1.49532C14.517 1.23822 14.9919 1.1074 15.474 1.11941C16.0909 1.13149 16.6645 1.28469 17.1485 1.69736C17.5057 2.0019 17.689 2.38828 17.7212 2.84952C17.775 3.62764 17.4522 4.22357 16.8111 4.63946C16.4345 4.88416 16.0282 5.07333 15.6209 5.29737C15.3963 5.42106 15.2042 5.52973 14.9846 5.75351C14.7915 5.97809 14.7821 6.18979 14.7821 6.18979L17.7003 6.18603V7.48227H13.1958C13.1958 7.48227 13.1958 7.39373 13.1958 7.35697C13.1786 6.71999 13.2531 6.12057 13.5456 5.54207C13.8146 5.01134 14.2327 4.62282 14.735 4.32365C15.1218 4.09316 15.5292 3.89703 15.9168 3.66761C16.156 3.52621 16.325 3.3188 16.3236 3.01802C16.3236 2.7599 16.1353 2.53049 15.8663 2.45885C15.2319 2.2882 14.5862 2.56054 14.2504 3.13957C14.2015 3.22409 14.1514 3.30807 14.088 3.41647Z" fill="#1B1A3D" style="fill:#1B1A3D;fill:color(display-p3 0.1059 0.1020 0.2392);fill-opacity:1;"/>
<path d="M20.0004 13.3791L17.3772 8.84631H12.1861L9.5459 13.4259H14.7752L17.3557 17.9372L20.0004 13.3791Z" fill="#1B1A3D" style="fill:#1B1A3D;fill:color(display-p3 0.1059 0.1020 0.2392);fill-opacity:1;"/>
</svg>
