<svg width="22" height="22" viewBox="0 0 22 22" fill="none" xmlns="http://www.w3.org/2000/svg">
<path d="M10.7837 20.5673C16.187 20.5673 20.5673 16.187 20.5673 10.7837C20.5673 5.3803 16.187 1 10.7837 1C5.3803 1 1 5.3803 1 10.7837C1 16.187 5.3803 20.5673 10.7837 20.5673Z" stroke="#5754BD" style="stroke:#5754BD;stroke:color(display-p3 0.3416 0.3295 0.7401);stroke-opacity:1;" stroke-width="1.5" stroke-linecap="round" stroke-linejoin="round"/>
<path d="M10.7314 15.0983V9.63756C10.7314 9.43059 10.6492 9.23225 10.5029 9.08594C10.3566 8.93961 10.1581 8.85742 9.95126 8.85742H9.17114" stroke="#5754BD" style="stroke:#5754BD;stroke:color(display-p3 0.3416 0.3295 0.7401);stroke-opacity:1;" stroke-width="1.5" stroke-linecap="round" stroke-linejoin="round"/>
<path d="M10.3413 6.17952C10.1259 6.17952 9.95129 6.00489 9.95129 5.78947C9.95129 5.57405 10.1259 5.39941 10.3413 5.39941" stroke="#5754BD" style="stroke:#5754BD;stroke:color(display-p3 0.3416 0.3295 0.7401);stroke-opacity:1;" stroke-width="1.5" stroke-linecap="round" stroke-linejoin="round"/>
<path d="M10.3413 6.17952C10.5567 6.17952 10.7314 6.00489 10.7314 5.78947C10.7314 5.57405 10.5567 5.39941 10.3413 5.39941" stroke="#5754BD" style="stroke:#5754BD;stroke:color(display-p3 0.3416 0.3295 0.7401);stroke-opacity:1;" stroke-width="1.5" stroke-linecap="round" stroke-linejoin="round"/>
<path d="M9.17114 15.0986H12.3962" stroke="#5754BD" style="stroke:#5754BD;stroke:color(display-p3 0.3416 0.3295 0.7401);stroke-opacity:1;" stroke-width="1.5" stroke-miterlimit="10" stroke-linecap="round" stroke-linejoin="round"/>
</svg>
