<svg width="46" height="50" viewBox="0 0 46 50" fill="none" xmlns="http://www.w3.org/2000/svg">
<path d="M24.8855 0C32.1627 0 39.0416 3.18505 43.7796 8.73616C46.1528 11.5309 45.8375 15.7259 43.0577 18.122C40.2779 20.5106 36.0958 20.1937 33.7226 17.3989C33.6895 17.3622 33.648 17.3255 33.6231 17.2888L33.6289 17.2988L33.4209 17.0684C31.2176 14.6775 28.1411 13.3148 24.8855 13.3148C24.2353 13.3148 23.5976 13.3686 22.9765 13.472L3.41956 12.371L3.50303 12.2278C4.90244 9.87196 6.67265 7.7702 8.73788 5.99396L8.75418 5.98681C13.093 2.25314 18.7323 0 24.8855 0Z" fill="url(#paint0_linear_669_10)" style=""/>
<path d="M5.74374 9.04541L13.8042 21.4424C13.4454 22.567 13.2516 23.7649 13.2516 25.0073C13.2516 29.6383 15.9452 33.6469 19.8408 35.5401L20.0464 35.6374L20.0807 35.6458L20.3813 35.7791C21.7657 36.3689 23.2819 36.6925 24.8769 36.6925C28.3722 36.6925 31.6252 35.151 33.8469 32.4517L34.046 32.2031C36.2947 29.3133 40.4602 28.8045 43.3396 31.068C46.2106 33.324 46.7168 37.5115 44.4681 40.4013C39.7134 46.5054 32.5773 49.9998 24.8769 49.9998C11.1606 49.9998 0 38.7867 0 24.9998C0 20.7022 1.08702 16.6615 2.99552 13.1228L3.24474 12.6723C3.97288 11.3873 4.80982 10.1746 5.74374 9.04541Z" fill="url(#paint1_linear_669_10)" style=""/>
<path opacity="0.8" d="M5.74374 9.04541L13.8042 21.4424C13.4454 22.567 13.2516 23.7649 13.2516 25.0073C13.2516 29.6383 15.9452 33.6469 19.8408 35.5401L20.0464 35.6374L20.0807 35.6458L20.3813 35.7791C21.7657 36.3689 23.2819 36.6925 24.8769 36.6925C28.3722 36.6925 31.6252 35.151 33.8469 32.4517L34.046 32.2031C36.2947 29.3133 40.4602 28.8045 43.3396 31.068C46.2106 33.324 46.7168 37.5115 44.4681 40.4013C39.7134 46.5054 32.5773 49.9998 24.8769 49.9998C11.1606 49.9998 0 38.7867 0 24.9998C0 20.7022 1.08702 16.6615 2.99552 13.1228L3.24474 12.6723C3.97288 11.3873 4.80982 10.1746 5.74374 9.04541Z" fill="url(#paint2_radial_669_10)" style=""/>
<path d="M5.74374 9.04541L13.8042 21.4424C13.4454 22.567 13.2516 23.7649 13.2516 25.0073C13.2516 29.6383 15.9452 33.6469 19.8408 35.5401L20.0464 35.6374L20.0807 35.6458L20.3813 35.7791C21.7657 36.3689 23.2819 36.6925 24.8769 36.6925C28.3722 36.6925 31.6252 35.151 33.8469 32.4517L34.046 32.2031C36.2947 29.3133 40.4602 28.8045 43.3396 31.068C46.2106 33.324 46.7168 37.5115 44.4681 40.4013C39.7134 46.5054 32.5773 49.9998 24.8769 49.9998C11.1606 49.9998 0 38.7867 0 24.9998C0 20.7022 1.08702 16.6615 2.99552 13.1228L3.24474 12.6723C3.97288 11.3873 4.80982 10.1746 5.74374 9.04541Z" fill="url(#paint3_radial_669_10)" style=""/>
<path d="M5.74374 9.04541L13.8042 21.4424C13.4454 22.567 13.2516 23.7649 13.2516 25.0073C13.2516 29.6383 15.9452 33.6469 19.8408 35.5401L20.0464 35.6374L20.0807 35.6458L20.3813 35.7791C21.7657 36.3689 23.2819 36.6925 24.8769 36.6925C28.3722 36.6925 31.6252 35.151 33.8469 32.4517L34.046 32.2031C36.2947 29.3133 40.4602 28.8045 43.3396 31.068C46.2106 33.324 46.7168 37.5115 44.4681 40.4013C39.7134 46.5054 32.5773 49.9998 24.8769 49.9998C11.1606 49.9998 0 38.7867 0 24.9998C0 20.7022 1.08702 16.6615 2.99552 13.1228L3.24474 12.6723C3.97288 11.3873 4.80982 10.1746 5.74374 9.04541Z" fill="url(#paint4_radial_669_10)" fill-opacity="0.8" style=""/>
<path d="M5.74374 9.04541L13.8042 21.4424C13.4454 22.567 13.2516 23.7649 13.2516 25.0073C13.2516 29.6383 15.9452 33.6469 19.8408 35.5401L20.0464 35.6374L20.0807 35.6458L20.3813 35.7791C21.7657 36.3689 23.2819 36.6925 24.8769 36.6925C28.3722 36.6925 31.6252 35.151 33.8469 32.4517L34.046 32.2031C36.2947 29.3133 40.4602 28.8045 43.3396 31.068C46.2106 33.324 46.7168 37.5115 44.4681 40.4013C39.7134 46.5054 32.5773 49.9998 24.8769 49.9998C11.1606 49.9998 0 38.7867 0 24.9998C0 20.7022 1.08702 16.6615 2.99552 13.1228L3.24474 12.6723C3.97288 11.3873 4.80982 10.1746 5.74374 9.04541Z" fill="url(#paint5_radial_669_10)" style=""/>
<path d="M10.9949 30.8979C13.8245 33.2281 16.9362 34.8052 19.9815 35.6308C20.0147 35.6383 20.0396 35.6458 20.0811 35.6534C16.0566 33.8102 13.2519 29.7328 13.2519 25.0073C13.2519 18.5638 18.463 13.3146 24.8855 13.3146C28.2461 13.3146 31.4159 14.7666 33.6314 17.3028C32.2374 14.8042 30.2708 12.4081 27.7566 10.3439C21.5498 5.22734 13.9656 3.69361 8.73793 5.99379C6.41453 7.99205 4.46454 10.4023 2.99583 13.1228C1.84243 18.704 4.83795 25.818 10.9949 30.8904V30.8979Z" fill="url(#paint6_linear_669_10)" style=""/>
<defs>
<linearGradient id="paint0_linear_669_10" x1="38.5295" y1="19.6078" x2="33.7808" y2="-3.14795" gradientUnits="userSpaceOnUse">
<stop stop-color="#476FE7" style="stop-color:#476FE7;stop-color:color(display-p3 0.2784 0.4353 0.9059);stop-opacity:1;"/>
<stop offset="0.296988" stop-color="#3D5DE6" style="stop-color:#3D5DE6;stop-color:color(display-p3 0.2392 0.3647 0.9020);stop-opacity:1;"/>
<stop offset="0.522398" stop-color="#3550E7" style="stop-color:#3550E7;stop-color:color(display-p3 0.2078 0.3137 0.9059);stop-opacity:1;"/>
<stop offset="0.726413" stop-color="#2D47E8" style="stop-color:#2D47E8;stop-color:color(display-p3 0.1765 0.2784 0.9098);stop-opacity:1;"/>
<stop offset="1" stop-color="#253FEB" style="stop-color:#253FEB;stop-color:color(display-p3 0.1451 0.2471 0.9216);stop-opacity:1;"/>
</linearGradient>
<linearGradient id="paint1_linear_669_10" x1="45.0798" y1="39.673" x2="-1.25034" y2="25.4012" gradientUnits="userSpaceOnUse">
<stop stop-color="#73B1E2" style="stop-color:#73B1E2;stop-color:color(display-p3 0.4510 0.6941 0.8863);stop-opacity:1;"/>
<stop offset="0.162719" stop-color="#7FADD8" style="stop-color:#7FADD8;stop-color:color(display-p3 0.4980 0.6784 0.8471);stop-opacity:1;"/>
<stop offset="0.296988" stop-color="#8AA4CD" style="stop-color:#8AA4CD;stop-color:color(display-p3 0.5412 0.6431 0.8039);stop-opacity:1;"/>
<stop offset="0.412309" stop-color="#909EC7" style="stop-color:#909EC7;stop-color:color(display-p3 0.5647 0.6196 0.7804);stop-opacity:1;"/>
<stop offset="0.522398" stop-color="#9594C0" style="stop-color:#9594C0;stop-color:color(display-p3 0.5843 0.5804 0.7529);stop-opacity:1;"/>
<stop offset="0.615031" stop-color="#948DBE" style="stop-color:#948DBE;stop-color:color(display-p3 0.5804 0.5529 0.7451);stop-opacity:1;"/>
<stop offset="0.726413" stop-color="#9383BB" style="stop-color:#9383BB;stop-color:color(display-p3 0.5765 0.5137 0.7333);stop-opacity:1;"/>
<stop offset="0.854082" stop-color="#7D71C3" style="stop-color:#7D71C3;stop-color:color(display-p3 0.4902 0.4431 0.7647);stop-opacity:1;"/>
<stop offset="1" stop-color="#5359D8" style="stop-color:#5359D8;stop-color:color(display-p3 0.3255 0.3490 0.8471);stop-opacity:1;"/>
</linearGradient>
<radialGradient id="paint2_radial_669_10" cx="0" cy="0" r="1" gradientUnits="userSpaceOnUse" gradientTransform="translate(33.0022 46.4051) rotate(-161.81) scale(17.7969 22.6808)">
<stop stop-color="#BFDFEC" style="stop-color:#BFDFEC;stop-color:color(display-p3 0.7477 0.8760 0.9250);stop-opacity:1;"/>
<stop offset="1" stop-color="#BFDFEC" stop-opacity="0" style="stop-color:none;stop-opacity:0;"/>
</radialGradient>
<radialGradient id="paint3_radial_669_10" cx="0" cy="0" r="1" gradientUnits="userSpaceOnUse" gradientTransform="translate(4.22688 39.8692) rotate(-141.702) scale(26.1013 14.374)">
<stop stop-color="#A784AE" style="stop-color:#A784AE;stop-color:color(display-p3 0.6549 0.5176 0.6824);stop-opacity:1;"/>
<stop offset="1" stop-color="#A784AE" stop-opacity="0" style="stop-color:none;stop-opacity:0;"/>
</radialGradient>
<radialGradient id="paint4_radial_669_10" cx="0" cy="0" r="1" gradientUnits="userSpaceOnUse" gradientTransform="translate(15.9321 48.3659) rotate(-149.966) scale(21.2199 16.3805)">
<stop stop-color="#E8D1AE" stop-opacity="0.800699" style="stop-color:#E8D1AE;stop-color:color(display-p3 0.9098 0.8188 0.6824);stop-opacity:0.800699;"/>
<stop offset="1" stop-color="#E8D1AE" stop-opacity="0" style="stop-color:none;stop-opacity:0;"/>
</radialGradient>
<radialGradient id="paint5_radial_669_10" cx="0" cy="0" r="1" gradientUnits="userSpaceOnUse" gradientTransform="translate(44.0571 27.4509) rotate(113.494) scale(18.3513 11.7254)">
<stop stop-color="#70AEF2" stop-opacity="0.83" style="stop-color:#70AEF2;stop-color:color(display-p3 0.4392 0.6824 0.9490);stop-opacity:0.83;"/>
<stop offset="1" stop-color="#6896DF" stop-opacity="0" style="stop-color:none;stop-opacity:0;"/>
</radialGradient>
<linearGradient id="paint6_linear_669_10" x1="18.1974" y1="5.67967" x2="18.25" y2="35.176" gradientUnits="userSpaceOnUse">
<stop stop-color="#1F2158" style="stop-color:#1F2158;stop-color:color(display-p3 0.1216 0.1294 0.3451);stop-opacity:1;"/>
<stop offset="0.0854381" stop-color="#23276A" style="stop-color:#23276A;stop-color:color(display-p3 0.1373 0.1529 0.4157);stop-opacity:1;"/>
<stop offset="0.220029" stop-color="#2D3383" style="stop-color:#2D3383;stop-color:color(display-p3 0.1765 0.2000 0.5137);stop-opacity:1;"/>
<stop offset="0.310024" stop-color="#363E92" style="stop-color:#363E92;stop-color:color(display-p3 0.2118 0.2431 0.5725);stop-opacity:1;"/>
<stop offset="0.455085" stop-color="#494EA8" style="stop-color:#494EA8;stop-color:color(display-p3 0.2863 0.3059 0.6588);stop-opacity:1;"/>
<stop offset="0.580132" stop-color="#5C5EB1" style="stop-color:#5C5EB1;stop-color:color(display-p3 0.3608 0.3686 0.6941);stop-opacity:1;"/>
<stop offset="0.717917" stop-color="#6764AC" style="stop-color:#6764AC;stop-color:color(display-p3 0.4039 0.3922 0.6745);stop-opacity:1;"/>
<stop offset="0.865179" stop-color="#746DA7" style="stop-color:#746DA7;stop-color:color(display-p3 0.4549 0.4275 0.6549);stop-opacity:1;"/>
<stop offset="1" stop-color="#7B78A6" style="stop-color:#7B78A6;stop-color:color(display-p3 0.4824 0.4706 0.6510);stop-opacity:1;"/>
</linearGradient>
</defs>
</svg>
