<svg width="55" height="15" viewBox="0 0 55 15" fill="none" xmlns="http://www.w3.org/2000/svg">
<path d="M20.017 6.95025C20.017 8.2357 19.4661 8.87843 18.2724 8.87843C17.0788 8.87843 17.3543 8.69479 17.0788 8.41934C16.8033 8.14388 16.7115 7.59297 16.7115 6.95025V2.63479H13.1306V7.77661C13.1306 8.97025 13.4061 9.88843 14.0488 10.5312C14.5997 11.1739 15.5179 11.4493 16.6197 11.4493C18.2724 11.4493 19.3743 10.7148 20.017 9.33752V11.0821H23.5979V2.54297H20.017V6.76661V6.95025Z" fill="#1B1A3D" style="fill:#1B1A3D;fill:color(display-p3 0.1059 0.1020 0.2392);fill-opacity:1;"/>
<path d="M7.62211 2.3595C6.70393 2.3595 5.96938 2.54313 5.41847 3.00222C4.86756 3.3695 4.40847 4.01223 4.13301 4.93041V2.81859H0.643921V11.3577H4.22483V7.31768C4.22483 5.94041 4.77574 5.29768 5.96938 5.29768C7.16302 5.29768 7.62211 5.94041 7.62211 7.22586V11.2659H11.203V6.3995C11.203 5.02223 10.9276 4.01223 10.2848 3.3695C9.73393 2.63495 8.81575 2.3595 7.62211 2.3595Z" fill="#1B1A3D" style="fill:#1B1A3D;fill:color(display-p3 0.1059 0.1020 0.2392);fill-opacity:1;"/>
<path d="M41.6863 0.798462H38.1053V11.3576H41.6863V0.798462Z" fill="#1B1A3D" style="fill:#1B1A3D;fill:color(display-p3 0.1059 0.1020 0.2392);fill-opacity:1;"/>
<path d="M32.505 6.85826C32.505 7.50099 32.3214 7.96008 32.1377 8.32736C31.8623 8.60281 31.495 8.78645 30.8523 8.78645C30.2096 8.78645 29.8423 8.60281 29.5668 8.32736C29.2914 8.0519 29.1996 7.50099 29.1996 6.85826V2.72644H25.6187V7.31735C25.6187 8.60281 26.0777 9.61281 26.9041 10.4392C27.7305 11.2655 29.1077 11.6328 30.8523 11.6328C32.5968 11.6328 33.8823 11.2655 34.8005 10.4392C35.7187 9.61281 36.0859 8.60281 36.0859 7.31735V2.72644H32.505V6.85826Z" fill="#1B1A3D" style="fill:#1B1A3D;fill:color(display-p3 0.1059 0.1020 0.2392);fill-opacity:1;"/>
<path d="M51.2355 2.72644L49.1236 7.31735L47.1955 2.72644H43.4309L47.1036 10.531L45.2673 14.0201H49.2155L55 2.72644H51.2355Z" fill="#1B1A3D" style="fill:#1B1A3D;fill:color(display-p3 0.1059 0.1020 0.2392);fill-opacity:1;"/>
</svg>
