<svg width="38" height="38" viewBox="0 0 38 38" fill="none" xmlns="http://www.w3.org/2000/svg">
<path d="M18.2541 1.41979C18.3171 1.29353 18.4141 1.18732 18.534 1.11308C18.6541 1.03884 18.7924 0.999512 18.9335 0.999512C19.0745 0.999512 19.2129 1.03884 19.3329 1.11308C19.4528 1.18732 19.5499 1.29353 19.6128 1.41979L21.1921 4.61604C21.2466 4.72539 21.3267 4.81993 21.4257 4.89161C21.5246 4.9633 21.6395 5.00999 21.7603 5.02771L25.3025 5.53798C25.441 5.55679 25.5715 5.61416 25.6792 5.70355C25.7868 5.79293 25.8671 5.91073 25.9109 6.04354C25.9549 6.17633 25.9605 6.31879 25.9273 6.45467C25.8943 6.59055 25.8235 6.71439 25.7235 6.81209L23.1596 9.3165C23.0726 9.40042 23.0075 9.50434 22.9699 9.61918C22.9322 9.73403 22.9233 9.85634 22.9436 9.97547L23.5494 13.5051C23.5724 13.643 23.5563 13.7846 23.5029 13.9138C23.4494 14.043 23.3609 14.1546 23.2473 14.2361C23.1324 14.3177 22.9972 14.366 22.8566 14.3756C22.716 14.3853 22.5755 14.3559 22.4506 14.2909L19.2872 12.6364C19.1778 12.5793 19.0562 12.5495 18.9327 12.5495C18.8092 12.5495 18.6876 12.5793 18.5781 12.6364L15.4242 14.294C15.2992 14.3591 15.1587 14.3884 15.0181 14.3787C14.8775 14.3691 14.7423 14.3208 14.6275 14.2392C14.5129 14.1586 14.4235 14.0471 14.3697 13.9177C14.316 13.7883 14.3001 13.6463 14.3238 13.5082L14.9295 9.9786C14.9501 9.85959 14.9414 9.73736 14.904 9.62253C14.8666 9.50769 14.8018 9.40371 14.7151 9.31963L12.1434 6.81522C12.0424 6.71775 11.971 6.5938 11.9372 6.45758C11.9034 6.32136 11.9088 6.17837 11.9526 6.04503C11.9963 5.9117 12.0768 5.7934 12.1848 5.70371C12.2927 5.61403 12.4238 5.55659 12.5629 5.53798L16.1051 5.02458C16.2262 5.00697 16.3412 4.96034 16.4405 4.88865C16.5397 4.81698 16.62 4.72237 16.6748 4.61291L18.2541 1.41979Z" stroke="#2741F1" style="stroke:#2741F1;stroke:color(display-p3 0.1529 0.2549 0.9451);stroke-opacity:1;" stroke-width="1.5" stroke-linecap="round" stroke-linejoin="round"/>
<path d="M12.3501 15.7012L12.6318 17.3431C12.6557 17.4812 12.64 17.623 12.5866 17.7524C12.5331 17.8817 12.444 17.9933 12.3297 18.0741C12.2151 18.1564 12.0799 18.2051 11.9392 18.2148C11.7984 18.2245 11.6578 18.1948 11.533 18.1289L8.36964 16.4713C8.26019 16.4143 8.13857 16.3846 8.01511 16.3846C7.89166 16.3846 7.77004 16.4143 7.66059 16.4713L4.5066 18.1289C4.38182 18.1948 4.24118 18.2245 4.10047 18.2148C3.95973 18.2051 3.82448 18.1564 3.70989 18.0741C3.59544 17.9935 3.50617 17.8819 3.45244 17.7526C3.3987 17.6231 3.38269 17.4813 3.40623 17.3431L4.01198 13.8136C4.03285 13.6945 4.02421 13.5723 3.98681 13.4574C3.94944 13.3425 3.88445 13.2385 3.79754 13.1546L1.22584 10.6502C1.12599 10.553 1.05533 10.4298 1.02186 10.2945C0.988388 10.1592 0.993439 10.0173 1.03644 9.88477C1.08083 9.75188 1.16127 9.63394 1.26879 9.54413C1.3763 9.4543 1.50666 9.39612 1.64532 9.37607L5.18905 8.86266C5.31027 8.84531 5.42544 8.79877 5.52467 8.72707C5.62393 8.65536 5.70427 8.56062 5.7588 8.451L7.33658 5.25476C7.39956 5.12849 7.4965 5.02227 7.61649 4.94803C7.73648 4.87379 7.87479 4.83447 8.0159 4.83447C8.157 4.83447 8.29531 4.87379 8.4153 4.94803C8.53531 5.02227 8.63223 5.12849 8.69522 5.25476L9.21958 6.31443" stroke="#2741F1" style="stroke:#2741F1;stroke:color(display-p3 0.1529 0.2549 0.9451);stroke-opacity:1;" stroke-width="1.5" stroke-linecap="round" stroke-linejoin="round"/>
<path d="M18.9632 32.8907C18.639 32.8907 18.3762 32.6279 18.3762 32.3038C18.3762 31.9796 18.639 31.7168 18.9632 31.7168" stroke="#2741F1" style="stroke:#2741F1;stroke:color(display-p3 0.1529 0.2549 0.9451);stroke-opacity:1;" stroke-width="1.5"/>
<path d="M18.9633 32.8907C19.2874 32.8907 19.5502 32.6279 19.5502 32.3038C19.5502 31.9796 19.2874 31.7168 18.9633 31.7168" stroke="#2741F1" style="stroke:#2741F1;stroke:color(display-p3 0.1529 0.2549 0.9451);stroke-opacity:1;" stroke-width="1.5"/>
<path d="M24.4104 27.6079H13.4537C12.5892 27.6079 11.8884 28.3087 11.8884 29.1732V35.4342C11.8884 36.2987 12.5892 36.9994 13.4537 36.9994H24.4104C25.2749 36.9994 25.9757 36.2987 25.9757 35.4342V29.1732C25.9757 28.3087 25.2749 27.6079 24.4104 27.6079Z" stroke="#2741F1" style="stroke:#2741F1;stroke:color(display-p3 0.1529 0.2549 0.9451);stroke-opacity:1;" stroke-width="1.5" stroke-linecap="round" stroke-linejoin="round"/>
<path d="M14.2362 27.608V24.4775C14.2362 23.2322 14.7309 22.0377 15.6116 21.1571C16.4922 20.2765 17.6866 19.7817 18.932 19.7817C20.1773 19.7817 21.3717 20.2765 22.2523 21.1571C23.1329 22.0377 23.6277 23.2322 23.6277 24.4775V27.608" stroke="#2741F1" style="stroke:#2741F1;stroke:color(display-p3 0.1529 0.2549 0.9451);stroke-opacity:1;" stroke-width="1.5" stroke-linecap="round" stroke-linejoin="round"/>
<path d="M25.5764 15.7012L25.2947 17.3431C25.2707 17.4812 25.2866 17.623 25.3399 17.7524C25.3935 17.8817 25.4825 17.9933 25.5968 18.0741C25.7114 18.1564 25.8466 18.2051 25.9873 18.2148C26.128 18.2245 26.2688 18.1948 26.3935 18.1289L29.5569 16.4713C29.6663 16.4143 29.7879 16.3846 29.9114 16.3846C30.0349 16.3846 30.1565 16.4143 30.2659 16.4713L33.4199 18.1289C33.5447 18.1948 33.6854 18.2245 33.8261 18.2148C33.9668 18.2051 34.1021 18.1564 34.2166 18.0741C34.3311 17.9935 34.4203 17.8819 34.4741 17.7526C34.5278 17.6231 34.5438 17.4813 34.5203 17.3431L33.9145 13.8136C33.8937 13.6945 33.9023 13.5723 33.9397 13.4574C33.9771 13.3425 34.0421 13.2385 34.129 13.1546L36.7007 10.6502C36.8005 10.553 36.8711 10.4298 36.9046 10.2945C36.9381 10.1592 36.9331 10.0173 36.8901 9.88477C36.8456 9.75188 36.7652 9.63394 36.6578 9.54413C36.5503 9.4543 36.4199 9.39612 36.2812 9.37607L32.7375 8.86266C32.6163 8.84531 32.5011 8.79877 32.4019 8.72707C32.3026 8.65536 32.2222 8.56062 32.1677 8.451L30.5899 5.25476C30.527 5.12849 30.43 5.02227 30.3101 4.94803C30.19 4.87379 30.0517 4.83447 29.9106 4.83447C29.7696 4.83447 29.6312 4.87379 29.5112 4.94803C29.3913 5.02227 29.2942 5.12849 29.2313 5.25476L28.7069 6.31443" stroke="#2741F1" style="stroke:#2741F1;stroke:color(display-p3 0.1529 0.2549 0.9451);stroke-opacity:1;" stroke-width="1.5" stroke-linecap="round" stroke-linejoin="round"/>
</svg>
