<svg width="38" height="36" viewBox="0 0 38 36" fill="none" xmlns="http://www.w3.org/2000/svg">
<path d="M19.318 23.8042C19.1148 23.884 18.8884 23.884 18.6825 23.8042C15.4226 22.5461 13.2715 19.4122 13.2664 15.9154V13.3398C13.2664 12.8535 13.6626 12.4573 14.1489 12.4573H23.8517C24.338 12.4573 24.7342 12.8535 24.7342 13.3398V15.9154C24.7318 19.4096 22.5781 22.5435 19.318 23.8016V23.8042Z" stroke="#2741F1" style="stroke:#2741F1;stroke:color(display-p3 0.1529 0.2549 0.9451);stroke-opacity:1;" stroke-width="1.5" stroke-linecap="round" stroke-linejoin="round"/>
<path d="M6.92249 17.1776C6.92249 20.381 8.19504 23.4532 10.4602 25.7184C12.7254 27.9836 15.7976 29.2561 19.001 29.2561C22.2044 29.2561 25.2766 27.9836 27.5418 25.7184C29.8069 23.4532 31.0795 20.381 31.0795 17.1776C31.0795 13.9742 29.8069 10.902 27.5418 8.63683C25.2766 6.37167 22.2044 5.09912 19.001 5.09912C15.7976 5.09912 12.7254 6.37167 10.4602 8.63683C8.19504 10.902 6.92249 13.9742 6.92249 17.1776Z" stroke="#2741F1" style="stroke:#2741F1;stroke:color(display-p3 0.1529 0.2549 0.9451);stroke-opacity:1;" stroke-width="1.5" stroke-linecap="round" stroke-linejoin="round"/>
<path d="M32.1725 3.41262C32.1725 4.05261 32.4267 4.66639 32.8793 5.11894C33.3318 5.57148 33.9456 5.82572 34.5856 5.82572C35.2256 5.82572 35.8394 5.57148 36.2919 5.11894C36.7445 4.66639 36.9987 4.05261 36.9987 3.41262C36.9987 2.77262 36.7445 2.15884 36.2919 1.70629C35.8394 1.25375 35.2256 0.999512 34.5856 0.999512C33.9456 0.999512 33.3318 1.25375 32.8793 1.70629C32.4267 2.15884 32.1725 2.77262 32.1725 3.41262Z" stroke="#2741F1" style="stroke:#2741F1;stroke:color(display-p3 0.1529 0.2549 0.9451);stroke-opacity:1;" stroke-width="1.5" stroke-linecap="round" stroke-linejoin="round"/>
<path d="M5.82621 3.41262C5.82621 4.05261 5.57197 4.66639 5.11943 5.11894C4.66688 5.57148 4.0531 5.82572 3.4131 5.82572C2.77311 5.82572 2.15933 5.57148 1.70678 5.11894C1.25424 4.66639 1 4.05261 1 3.41262C1 2.77262 1.25424 2.15884 1.70678 1.70629C2.15933 1.25375 2.77311 0.999512 3.4131 0.999512C4.0531 0.999512 4.66688 1.25375 5.11943 1.70629C5.57197 2.15884 5.82621 2.77262 5.82621 3.41262Z" stroke="#2741F1" style="stroke:#2741F1;stroke:color(display-p3 0.1529 0.2549 0.9451);stroke-opacity:1;" stroke-width="1.5" stroke-linecap="round" stroke-linejoin="round"/>
<path d="M12.7152 27.5049L10.2547 30.9847L1.03381 30.9846" stroke="#2741F1" style="stroke:#2741F1;stroke:color(display-p3 0.1529 0.2549 0.9451);stroke-opacity:1;" stroke-width="1.5" stroke-linecap="round" stroke-linejoin="round"/>
<path d="M25.7903 27.2261L28.4345 30.9845L37 30.9847" stroke="#2741F1" style="stroke:#2741F1;stroke:color(display-p3 0.1529 0.2549 0.9451);stroke-opacity:1;" stroke-width="1.5" stroke-linecap="round" stroke-linejoin="round"/>
<path d="M12.6646 6.85325L10.2533 3.41187H5.82397" stroke="#2741F1" style="stroke:#2741F1;stroke:color(display-p3 0.1529 0.2549 0.9451);stroke-opacity:1;" stroke-width="1.5" stroke-linecap="round" stroke-linejoin="round"/>
<path d="M25.3341 6.87859L27.7438 3.41187H32.1732" stroke="#2741F1" style="stroke:#2741F1;stroke:color(display-p3 0.1529 0.2549 0.9451);stroke-opacity:1;" stroke-width="1.5" stroke-linecap="round" stroke-linejoin="round"/>
<path d="M33.4332 27.4192L36.9986 30.9845L33.4332 34.5497" stroke="#2741F1" style="stroke:#2741F1;stroke:color(display-p3 0.1529 0.2549 0.9451);stroke-opacity:1;" stroke-width="1.5" stroke-linecap="round" stroke-linejoin="round"/>
<path d="M4.56555 34.5497L1.00024 30.9845L4.56555 27.4192" stroke="#2741F1" style="stroke:#2741F1;stroke:color(display-p3 0.1529 0.2549 0.9451);stroke-opacity:1;" stroke-width="1.5" stroke-linecap="round" stroke-linejoin="round"/>
</svg>
