<svg width="38" height="38" viewBox="0 0 38 38" fill="none" xmlns="http://www.w3.org/2000/svg">
<path d="M1.00159 7.26064C1.00159 8.92119 2.56826 10.5137 5.35696 11.6879C8.14566 12.8621 11.928 13.5218 15.8718 13.5218C19.8156 13.5218 23.5979 12.8621 26.3866 11.6879C29.1753 10.5137 30.7419 8.92119 30.7419 7.26064C30.7419 5.60009 29.1753 4.00754 26.3866 2.83335C23.5979 1.65916 19.8156 0.999512 15.8718 0.999512C11.928 0.999512 8.14566 1.65916 5.35696 2.83335C2.56826 4.00754 1.00159 5.60009 1.00159 7.26064Z" stroke="#2741F1" style="stroke:#2741F1;stroke:color(display-p3 0.1529 0.2549 0.9451);stroke-opacity:1;" stroke-width="1.5" stroke-linecap="round" stroke-linejoin="round"/>
<path d="M17.4355 19.7484C16.9189 19.7719 16.3992 19.7829 15.8702 19.7829C7.65871 19.7829 1 16.981 1 13.5217" stroke="#2741F1" style="stroke:#2741F1;stroke:color(display-p3 0.1529 0.2549 0.9451);stroke-opacity:1;" stroke-width="1.5" stroke-linecap="round" stroke-linejoin="round"/>
<path d="M17.4355 26.7921C16.9189 26.8156 16.3992 26.8266 15.8702 26.8266C7.65871 26.8266 1 24.0247 1 20.5654" stroke="#2741F1" style="stroke:#2741F1;stroke:color(display-p3 0.1529 0.2549 0.9451);stroke-opacity:1;" stroke-width="1.5" stroke-linecap="round" stroke-linejoin="round"/>
<path d="M30.7404 14.3045V7.26074" stroke="#2741F1" style="stroke:#2741F1;stroke:color(display-p3 0.1529 0.2549 0.9451);stroke-opacity:1;" stroke-width="1.5" stroke-linecap="round" stroke-linejoin="round"/>
<path d="M1 7.25903V27.6077C1 31.067 7.65871 33.8688 15.8702 33.8688C16.3992 33.8688 16.9221 33.8579 17.4355 33.8344" stroke="#2741F1" style="stroke:#2741F1;stroke:color(display-p3 0.1529 0.2549 0.9451);stroke-opacity:1;" stroke-width="1.5" stroke-linecap="round" stroke-linejoin="round"/>
<path d="M37.0015 35.4343C37.0015 35.8494 36.8366 36.2475 36.543 36.5411C36.2495 36.8346 35.8513 36.9996 35.4362 36.9996H24.4792C24.0641 36.9996 23.6659 36.8346 23.3724 36.5411C23.0789 36.2475 22.9139 35.8494 22.9139 35.4343V26.0426C22.9139 25.6274 23.0789 25.2293 23.3724 24.9358C23.6659 24.6422 24.0641 24.4773 24.4792 24.4773H35.4362C35.8513 24.4773 36.2495 24.6422 36.543 24.9358C36.8366 25.2293 37.0015 25.6274 37.0015 26.0426V35.4343Z" stroke="#2741F1" style="stroke:#2741F1;stroke:color(display-p3 0.1529 0.2549 0.9451);stroke-opacity:1;" stroke-width="1.5" stroke-linecap="round" stroke-linejoin="round"/>
<path d="M28.0011 30.8384C28.0011 31.3574 28.2072 31.855 28.5742 32.222C28.9411 32.5889 29.4388 32.795 29.9577 32.795C30.4766 32.795 30.9743 32.5889 31.3412 32.222C31.7082 31.855 31.9143 31.3574 31.9143 30.8384C31.9143 30.5815 31.8637 30.3271 31.7654 30.0897C31.667 29.8523 31.5229 29.6366 31.3412 29.4549C31.1595 29.2732 30.9438 29.1291 30.7065 29.0308C30.4691 28.9324 30.2146 28.8818 29.9577 28.8818C29.7008 28.8818 29.4463 28.9324 29.2089 29.0308C28.9716 29.1291 28.7559 29.2732 28.5742 29.4549C28.3925 29.6366 28.2484 29.8523 28.15 30.0897C28.0517 30.3271 28.0011 30.5815 28.0011 30.8384Z" stroke="#2741F1" style="stroke:#2741F1;stroke:color(display-p3 0.1529 0.2549 0.9451);stroke-opacity:1;" stroke-width="1.5" stroke-linecap="round" stroke-linejoin="round"/>
<path d="M33.871 22.1293C33.871 21.0914 33.4587 20.0961 32.7248 19.3622C31.9909 18.6283 30.9956 18.2161 29.9578 18.2161C28.9199 18.2161 27.9246 18.6283 27.1907 19.3622C26.4568 20.0961 26.0446 21.0914 26.0446 22.1293V24.4772H33.871V22.1293Z" stroke="#2741F1" style="stroke:#2741F1;stroke:color(display-p3 0.1529 0.2549 0.9451);stroke-opacity:1;" stroke-width="1.5" stroke-linecap="round" stroke-linejoin="round"/>
</svg>
