<svg width="35" height="34" viewBox="0 0 35 34" fill="none" xmlns="http://www.w3.org/2000/svg">
<path d="M32.6371 0.999512C33.0183 0.999512 33.3839 1.14708 33.6535 1.40976C33.9231 1.67243 34.0746 2.0287 34.0746 2.40018L34.0631 13.0032C34.0949 17.6925 32.4829 22.2518 29.4938 25.9271C26.5047 29.6024 22.3175 32.1734 17.625 33.2148C12.9237 32.2149 8.71339 29.6815 5.69038 26.0336C2.66738 22.3857 1.01271 17.8417 1 13.1531L1.01869 2.40718C1.01869 2.0357 1.17014 1.67944 1.43973 1.41676C1.70932 1.15408 2.07496 1.00652 2.45621 1.00652L32.6371 0.999512Z" stroke="#2741F1" style="stroke:#2741F1;stroke:color(display-p3 0.1529 0.2549 0.9451);stroke-opacity:1;" stroke-width="1.5" stroke-linecap="round" stroke-linejoin="round"/>
<path d="M24.0349 20.581C24.0358 20.7655 23.9994 20.9484 23.9275 21.1191C23.8557 21.2899 23.75 21.4451 23.6164 21.5759C23.4828 21.7067 23.324 21.8105 23.1491 21.8813C22.9743 21.9522 22.7867 21.9886 22.5974 21.9886L12.5347 22.0321C12.1547 22.0321 11.7901 21.8854 11.5207 21.6243C11.2514 21.3631 11.0991 21.0087 11.0972 20.6384L11.0583 12.4109C11.0583 12.0394 11.2098 11.6831 11.4794 11.4205C11.749 11.1578 12.1146 11.0102 12.4959 11.0102L22.5585 10.9668C22.9386 10.9668 23.3031 11.1134 23.5725 11.3746C23.8419 11.6357 23.9942 11.9902 23.9961 12.3605L24.0349 20.581Z" stroke="#2741F1" style="stroke:#2741F1;stroke:color(display-p3 0.1529 0.2549 0.9451);stroke-opacity:1;" stroke-width="1.5" stroke-linecap="round" stroke-linejoin="round"/>
<path d="M17.4942 5.20171C16.9278 5.20428 16.3675 5.31551 15.8453 5.52906C15.3231 5.7426 14.8492 6.05428 14.4506 6.44629C14.052 6.83831 13.7366 7.30298 13.5223 7.81378C13.308 8.32458 13.1991 8.8715 13.2017 9.42331V11.0005L21.8269 10.9626V9.38549C21.8244 8.83356 21.7104 8.2875 21.4913 7.77851C21.2722 7.26953 20.9524 6.80758 20.55 6.41906C20.1477 6.03054 19.6707 5.72306 19.1464 5.51418C18.622 5.30531 18.0606 5.19913 17.4942 5.20171Z" stroke="#2741F1" style="stroke:#2741F1;stroke:color(display-p3 0.1529 0.2549 0.9451);stroke-opacity:1;" stroke-width="1.5" stroke-linecap="round" stroke-linejoin="round"/>
<path d="M15.7505 16.4955C15.7505 16.9598 15.9398 17.4051 16.2768 17.7335C16.6138 18.0618 17.0708 18.2463 17.5474 18.2463C18.024 18.2463 18.481 18.0618 18.818 17.7335C19.155 17.4051 19.3443 16.9598 19.3443 16.4955C19.3443 16.0311 19.155 15.5858 18.818 15.2574C18.481 14.9291 18.024 14.7446 17.5474 14.7446C17.0708 14.7446 16.6138 14.9291 16.2768 15.2574C15.9398 15.5858 15.7505 16.0311 15.7505 16.4955Z" stroke="#2741F1" style="stroke:#2741F1;stroke:color(display-p3 0.1529 0.2549 0.9451);stroke-opacity:1;" stroke-width="1.5" stroke-linecap="round" stroke-linejoin="round"/>
</svg>
