<svg width="76" height="13" viewBox="0 0 76 13" fill="none" xmlns="http://www.w3.org/2000/svg">
<path d="M5.73715 0.390435C5.75732 0.337303 5.79337 0.291527 5.84048 0.259216C5.8876 0.226905 5.94354 0.209595 6.00085 0.209595C6.05815 0.209595 6.11409 0.226905 6.16121 0.259216C6.20832 0.291527 6.24437 0.337303 6.26454 0.390435L7.69065 4.3957H11.7183C11.7758 4.3957 11.8321 4.41318 11.8793 4.44579C11.9266 4.4784 11.9626 4.52458 11.9826 4.57809C12.0025 4.63161 12.0054 4.6899 11.9909 4.74511C11.9764 4.80032 11.9451 4.8498 11.9014 4.88688L8.53584 7.65082L9.94449 11.8425C9.96333 11.8987 9.96365 11.9593 9.94542 12.0157C9.92718 12.0721 9.89132 12.1212 9.84303 12.1561C9.79474 12.1909 9.73651 12.2097 9.67675 12.2096C9.617 12.2095 9.55882 12.1906 9.51062 12.1556L6.00028 9.60434L2.48825 12.1556C2.44002 12.1899 2.38208 12.2083 2.32271 12.208C2.26333 12.2077 2.20556 12.1889 2.15764 12.1542C2.10972 12.1195 2.0741 12.0706 2.05586 12.0147C2.03762 11.9587 2.03769 11.8984 2.05608 11.8425L3.46472 7.65082L0.0986268 4.88688C0.0548558 4.8498 0.0236083 4.80032 0.00909365 4.74511C-0.00542101 4.6899 -0.00250547 4.63161 0.0174476 4.57809C0.0374006 4.52458 0.0734324 4.4784 0.120689 4.44579C0.167946 4.41318 0.224157 4.3957 0.281751 4.3957H4.30991L5.73715 0.390435Z" fill="#F5D500" style="fill:#F5D500;fill:color(display-p3 0.9627 0.8343 0.0000);fill-opacity:1;"/>
<path d="M37.7371 0.390435C37.7573 0.337303 37.7934 0.291527 37.8405 0.259216C37.8876 0.226905 37.9435 0.209595 38.0008 0.209595C38.0582 0.209595 38.1141 0.226905 38.1612 0.259216C38.2083 0.291527 38.2444 0.337303 38.2645 0.390435L39.6907 4.3957H43.7183C43.7758 4.3957 43.8321 4.41318 43.8793 4.44579C43.9266 4.4784 43.9626 4.52458 43.9826 4.57809C44.0025 4.63161 44.0054 4.6899 43.9909 4.74511C43.9764 4.80032 43.9451 4.8498 43.9014 4.88688L40.5358 7.65082L41.9445 11.8425C41.9633 11.8987 41.9637 11.9593 41.9454 12.0157C41.9272 12.0721 41.8913 12.1212 41.843 12.1561C41.7947 12.1909 41.7365 12.2097 41.6768 12.2096C41.617 12.2095 41.5588 12.1906 41.5106 12.1556L38.0003 9.60434L34.4883 12.1556C34.44 12.1899 34.3821 12.2083 34.3227 12.208C34.2633 12.2077 34.2056 12.1889 34.1576 12.1542C34.1097 12.1195 34.0741 12.0706 34.0559 12.0147C34.0376 11.9587 34.0377 11.8984 34.0561 11.8425L35.4647 7.65082L32.0986 4.88688C32.0549 4.8498 32.0236 4.80032 32.0091 4.74511C31.9946 4.6899 31.9975 4.63161 32.0174 4.57809C32.0374 4.52458 32.0734 4.4784 32.1207 4.44579C32.1679 4.41318 32.2242 4.3957 32.2818 4.3957H36.3099L37.7371 0.390435Z" fill="#F5D500" style="fill:#F5D500;fill:color(display-p3 0.9627 0.8343 0.0000);fill-opacity:1;"/>
<path d="M21.7371 0.390435C21.7573 0.337303 21.7934 0.291527 21.8405 0.259216C21.8876 0.226905 21.9435 0.209595 22.0008 0.209595C22.0582 0.209595 22.1141 0.226905 22.1612 0.259216C22.2083 0.291527 22.2444 0.337303 22.2645 0.390435L23.6907 4.3957H27.7183C27.7758 4.3957 27.8321 4.41318 27.8793 4.44579C27.9266 4.4784 27.9626 4.52458 27.9826 4.57809C28.0025 4.63161 28.0054 4.6899 27.9909 4.74511C27.9764 4.80032 27.9451 4.8498 27.9014 4.88688L24.5358 7.65082L25.9445 11.8425C25.9633 11.8987 25.9637 11.9593 25.9454 12.0157C25.9272 12.0721 25.8913 12.1212 25.843 12.1561C25.7947 12.1909 25.7365 12.2097 25.6768 12.2096C25.617 12.2095 25.5588 12.1906 25.5106 12.1556L22.0003 9.60434L18.4883 12.1556C18.44 12.1899 18.3821 12.2083 18.3227 12.208C18.2633 12.2077 18.2056 12.1889 18.1576 12.1542C18.1097 12.1195 18.0741 12.0706 18.0559 12.0147C18.0376 11.9587 18.0377 11.8984 18.0561 11.8425L19.4647 7.65082L16.0986 4.88688C16.0549 4.8498 16.0236 4.80032 16.0091 4.74511C15.9946 4.6899 15.9975 4.63161 16.0174 4.57809C16.0374 4.52458 16.0734 4.4784 16.1207 4.44579C16.1679 4.41318 16.2242 4.3957 16.2818 4.3957H20.3099L21.7371 0.390435Z" fill="#F5D500" style="fill:#F5D500;fill:color(display-p3 0.9627 0.8343 0.0000);fill-opacity:1;"/>
<path d="M53.7371 0.390435C53.7573 0.337303 53.7934 0.291527 53.8405 0.259216C53.8876 0.226905 53.9435 0.209595 54.0008 0.209595C54.0582 0.209595 54.1141 0.226905 54.1612 0.259216C54.2083 0.291527 54.2444 0.337303 54.2645 0.390435L55.6907 4.3957H59.7183C59.7758 4.3957 59.8321 4.41318 59.8793 4.44579C59.9266 4.4784 59.9626 4.52458 59.9826 4.57809C60.0025 4.63161 60.0054 4.6899 59.9909 4.74511C59.9764 4.80032 59.9451 4.8498 59.9014 4.88688L56.5358 7.65082L57.9445 11.8425C57.9633 11.8987 57.9637 11.9593 57.9454 12.0157C57.9272 12.0721 57.8913 12.1212 57.843 12.1561C57.7947 12.1909 57.7365 12.2097 57.6768 12.2096C57.617 12.2095 57.5588 12.1906 57.5106 12.1556L54.0003 9.60434L50.4883 12.1556C50.44 12.1899 50.3821 12.2083 50.3227 12.208C50.2633 12.2077 50.2056 12.1889 50.1576 12.1542C50.1097 12.1195 50.0741 12.0706 50.0559 12.0147C50.0376 11.9587 50.0377 11.8984 50.0561 11.8425L51.4647 7.65082L48.0986 4.88688C48.0549 4.8498 48.0236 4.80032 48.0091 4.74511C47.9946 4.6899 47.9975 4.63161 48.0174 4.57809C48.0374 4.52458 48.0734 4.4784 48.1207 4.44579C48.1679 4.41318 48.2242 4.3957 48.2818 4.3957H52.3099L53.7371 0.390435Z" fill="#F5D500" style="fill:#F5D500;fill:color(display-p3 0.9627 0.8343 0.0000);fill-opacity:1;"/>
<path d="M69.7371 0.390435C69.7573 0.337303 69.7934 0.291527 69.8405 0.259216C69.8876 0.226905 69.9435 0.209595 70.0008 0.209595C70.0582 0.209595 70.1141 0.226905 70.1612 0.259216C70.2083 0.291527 70.2444 0.337303 70.2645 0.390435L71.6907 4.3957H75.7183C75.7758 4.3957 75.8321 4.41318 75.8793 4.44579C75.9266 4.4784 75.9626 4.52458 75.9826 4.57809C76.0025 4.63161 76.0054 4.6899 75.9909 4.74511C75.9764 4.80032 75.9451 4.8498 75.9014 4.88688L72.5358 7.65082L73.9445 11.8425C73.9633 11.8987 73.9637 11.9593 73.9454 12.0157C73.9272 12.0721 73.8913 12.1212 73.843 12.1561C73.7947 12.1909 73.7365 12.2097 73.6768 12.2096C73.617 12.2095 73.5588 12.1906 73.5106 12.1556L70.0003 9.60434L66.4883 12.1556C66.44 12.1899 66.3821 12.2083 66.3227 12.208C66.2633 12.2077 66.2056 12.1889 66.1576 12.1542C66.1097 12.1195 66.0741 12.0706 66.0559 12.0147C66.0376 11.9587 66.0377 11.8984 66.0561 11.8425L67.4647 7.65082L64.0986 4.88688C64.0549 4.8498 64.0236 4.80032 64.0091 4.74511C63.9946 4.6899 63.9975 4.63161 64.0174 4.57809C64.0374 4.52458 64.0734 4.4784 64.1207 4.44579C64.1679 4.41318 64.2242 4.3957 64.2818 4.3957H68.3099L69.7371 0.390435Z" fill="#F5D500" style="fill:#F5D500;fill:color(display-p3 0.9627 0.8343 0.0000);fill-opacity:1;"/>
</svg>
