<svg width="22" height="24" viewBox="0 0 22 24" fill="none" xmlns="http://www.w3.org/2000/svg">
<path d="M15.5598 7.61951V16.0832C15.5598 20.2714 12.1781 23.6665 8.00645 23.6665C3.83487 23.6665 0.453125 20.2714 0.453125 16.0832C0.453125 11.895 3.83487 8.49991 8.00645 8.49991C8.60642 8.49991 9.19 8.57013 9.74953 8.70282V12.3928C9.22126 12.1408 8.63024 11.9999 8.00645 11.9999C5.76021 11.9999 3.93928 13.8281 3.93928 16.0832C3.93928 18.3384 5.76021 20.1666 8.00645 20.1666C10.2527 20.1666 12.0736 18.3384 12.0736 16.0832V0.333252H15.5598C15.5598 3.5549 18.1611 6.16658 21.37 6.16658V9.66657C19.1715 9.66657 17.1513 8.9004 15.5598 7.61951Z" fill="white"/>
</svg>
