<svg width="30" height="30" viewBox="0 0 30 30" fill="none" xmlns="http://www.w3.org/2000/svg">
<mask id="path-1-inside-1_1_910" fill="white">
<path fill-rule="evenodd" clip-rule="evenodd" d="M29.3733 7.03497L28.4162 7.38228C26.8742 7.94176 25.6599 9.15604 25.1005 10.698L24.7532 11.6551C24.4496 12.4907 23.268 12.4907 22.965 11.6551L22.6177 10.698C22.0582 9.15604 20.844 7.94176 19.302 7.38228L18.3449 7.03497C17.5093 6.7314 17.5093 5.54976 18.3449 5.24685L19.302 4.89954C20.844 4.34006 22.0582 3.12578 22.6177 1.58378L22.965 0.626723C23.2686 -0.208908 24.4502 -0.208908 24.7532 0.626723L25.1005 1.58378C25.6599 3.12578 26.8742 4.34006 28.4162 4.89954L29.3733 5.24685C30.2089 5.55042 30.2089 6.73205 29.3733 7.03497ZM23.3103 18.8086L21.3967 19.5033V19.5022C18.3121 20.6217 15.8841 23.0509 14.7645 26.1343L14.0698 28.049C13.4636 29.7202 11.1 29.7202 10.4938 28.049L9.79913 26.1354C8.67957 23.0509 6.25041 20.6228 3.16698 19.5033L1.25336 18.8086C-0.417786 18.2024 -0.417786 15.8388 1.25336 15.2326L3.16698 14.5379C6.2515 13.4183 8.67957 10.9892 9.79913 7.90575L10.4938 5.99213C11.1 4.32098 13.4636 4.32098 14.0698 5.99213L14.7645 7.90575C15.8841 10.9903 18.3132 13.4183 21.3967 14.5379L23.3103 15.2326C24.9814 15.8388 24.9814 18.2024 23.3103 18.8086Z"/>
</mask>
<path d="M28.4162 7.38228L28.9278 8.79233L28.9279 8.7923L28.4162 7.38228ZM29.3733 7.03497L28.8621 5.62476L28.8616 5.62494L29.3733 7.03497ZM25.1005 10.698L26.5105 11.2097L26.5105 11.2096L25.1005 10.698ZM24.7532 11.6551L26.163 12.1673L26.1632 12.1668L24.7532 11.6551ZM22.965 11.6551L24.3752 11.1439L24.3751 11.1434L22.965 11.6551ZM22.6177 10.698L21.2077 11.2096L21.2077 11.2097L22.6177 10.698ZM19.302 7.38228L18.7903 8.7923L18.7904 8.79233L19.302 7.38228ZM18.3449 7.03497L17.8327 8.44482L17.8332 8.445L18.3449 7.03497ZM18.3449 5.24685L18.8561 6.65705L18.8566 6.65688L18.3449 5.24685ZM19.302 4.89954L18.7904 3.48948L18.7903 3.48951L19.302 4.89954ZM22.6177 1.58378L21.2077 1.07209L21.2077 1.07217L22.6177 1.58378ZM22.965 0.626723L21.5552 0.11455L21.555 0.115036L22.965 0.626723ZM24.7532 0.626723L23.343 1.13792L23.3431 1.13841L24.7532 0.626723ZM25.1005 1.58378L26.5105 1.07217L26.5105 1.07209L25.1005 1.58378ZM28.4162 4.89954L28.9279 3.48951L28.9278 3.48948L28.4162 4.89954ZM29.3733 5.24685L29.8855 3.837L29.885 3.83682L29.3733 5.24685ZM21.3967 19.5033H19.8967V21.6436L21.9085 20.9132L21.3967 19.5033ZM23.3103 18.8086L22.7988 17.3985L22.7984 17.3986L23.3103 18.8086ZM21.3967 19.5022H22.8967V17.362L20.8849 18.0922L21.3967 19.5022ZM14.7645 26.1343L13.3546 25.6224L13.3544 25.6228L14.7645 26.1343ZM14.0698 28.049L12.6598 27.5375L12.6597 27.5375L14.0698 28.049ZM10.4938 28.049L11.9039 27.5375L11.9038 27.5372L10.4938 28.049ZM9.79913 26.1354L8.38914 26.6472L8.38916 26.6473L9.79913 26.1354ZM3.16698 19.5033L3.67892 18.0933L3.67882 18.0933L3.16698 19.5033ZM1.25336 18.8086L1.7652 17.3986L1.76486 17.3985L1.25336 18.8086ZM1.25336 15.2326L1.76486 16.6427L1.7652 16.6425L1.25336 15.2326ZM3.16698 14.5379L2.65521 13.1279L2.65514 13.1279L3.16698 14.5379ZM9.79913 7.90575L11.2091 8.41768L11.2091 8.41759L9.79913 7.90575ZM10.4938 5.99213L11.9038 6.50397L11.9039 6.50363L10.4938 5.99213ZM14.0698 5.99213L12.6597 6.50363L12.6599 6.50397L14.0698 5.99213ZM14.7645 7.90575L16.1745 7.39398L16.1745 7.39391L14.7645 7.90575ZM21.3967 14.5379L20.8847 15.9478L20.8848 15.9479L21.3967 14.5379ZM23.3103 15.2326L22.7984 16.6425L22.7988 16.6427L23.3103 15.2326ZM28.9279 8.7923L29.885 8.445L28.8616 5.62494L27.9045 5.97225L28.9279 8.7923ZM26.5105 11.2096C26.9184 10.0854 27.8036 9.20023 28.9278 8.79233L27.9046 5.97222C25.9448 6.68329 24.4015 8.22663 23.6904 10.1864L26.5105 11.2096ZM26.1632 12.1668L26.5105 11.2097L23.6904 10.1863L23.3431 11.1434L26.1632 12.1668ZM21.5548 12.1663C22.3362 14.3217 25.3815 14.3186 26.163 12.1673L23.3433 11.1429C23.5177 10.6629 24.1997 10.6597 24.3752 11.1439L21.5548 12.1663ZM21.2077 11.2097L21.555 12.1668L24.3751 11.1434L24.0278 10.1863L21.2077 11.2097ZM18.7904 8.79233C19.9146 9.20023 20.7998 10.0854 21.2077 11.2096L24.0278 10.1864C23.3167 8.22663 21.7734 6.68329 19.8136 5.97222L18.7904 8.79233ZM17.8332 8.445L18.7903 8.7923L19.8137 5.97225L18.8566 5.62494L17.8332 8.445ZM17.8337 3.83664C15.6783 4.61799 15.6814 7.66329 17.8327 8.44482L18.8571 5.62512C19.3371 5.79951 19.3403 6.48153 18.8561 6.65705L17.8337 3.83664ZM18.7903 3.48951L17.8332 3.83682L18.8566 6.65688L19.8137 6.30957L18.7903 3.48951ZM21.2077 1.07217C20.7998 2.19638 19.9146 3.08159 18.7904 3.48948L19.8136 6.3096C21.7734 5.59853 23.3167 4.05519 24.0278 2.09539L21.2077 1.07217ZM21.555 0.115036L21.2077 1.07209L24.0278 2.09547L24.3751 1.13841L21.555 0.115036ZM26.1634 0.115525C25.382 -2.03993 22.3367 -2.03676 21.5552 0.11455L24.3749 1.1389C24.2005 1.61895 23.5185 1.62211 23.343 1.13792L26.1634 0.115525ZM26.5105 1.07209L26.1632 0.115036L23.3431 1.13841L23.6904 2.09547L26.5105 1.07209ZM28.9278 3.48948C27.8036 3.08159 26.9184 2.19638 26.5105 1.07217L23.6904 2.09539C24.4015 4.05519 25.9448 5.59853 27.9046 6.3096L28.9278 3.48948ZM29.885 3.83682L28.9279 3.48951L27.9045 6.30957L28.8616 6.65688L29.885 3.83682ZM29.8845 8.44517C32.0399 7.66382 32.0368 4.61853 29.8855 3.837L28.8611 6.6567C28.3811 6.48231 28.3779 5.80028 28.8621 5.62476L29.8845 8.44517ZM21.9085 20.9132L23.8221 20.2186L22.7984 17.3986L20.8848 18.0933L21.9085 20.9132ZM19.8967 19.5022V19.5033H22.8967V19.5022H19.8967ZM16.1744 26.6463C17.1425 23.9802 19.2418 21.8801 21.9084 20.9122L20.8849 18.0922C17.3825 19.3634 14.6257 22.1216 13.3546 25.6224L16.1744 26.6463ZM15.4799 28.5606L16.1746 26.6459L13.3544 25.6228L12.6598 27.5375L15.4799 28.5606ZM9.08371 28.5606C10.168 31.5497 14.3956 31.5497 15.4799 28.5606L12.6597 27.5375C12.619 27.6498 12.5636 27.7046 12.514 27.7374C12.456 27.7757 12.3752 27.8024 12.2818 27.8024C12.1885 27.8024 12.1077 27.7757 12.0497 27.7374C12.0001 27.7046 11.9446 27.6498 11.9039 27.5375L9.08371 28.5606ZM8.38916 26.6473L9.08383 28.5609L11.9038 27.5372L11.2091 25.6236L8.38916 26.6473ZM2.65505 20.9132C5.32113 21.8812 7.42124 23.9805 8.38914 26.6472L11.2091 25.6237C9.93791 22.1213 7.17969 19.3644 3.67892 18.0933L2.65505 20.9132ZM0.741518 20.2186L2.65514 20.9132L3.67882 18.0933L1.7652 17.3986L0.741518 20.2186ZM0.741854 13.8225C-2.24729 14.9068 -2.24728 19.1344 0.741853 20.2187L1.76486 17.3985C1.65263 17.3578 1.59779 17.3024 1.56502 17.2527C1.52671 17.1947 1.5 17.1139 1.5 17.0206C1.5 16.9272 1.52671 16.8464 1.56502 16.7884C1.59779 16.7388 1.65263 16.6834 1.76486 16.6427L0.741854 13.8225ZM2.65514 13.1279L0.74152 13.8226L1.7652 16.6425L3.67882 15.9479L2.65514 13.1279ZM8.38919 7.39382C7.42117 10.0599 5.32188 12.16 2.65521 13.1279L3.67876 15.9479C7.18113 14.6767 9.93798 11.9185 11.2091 8.41768L8.38919 7.39382ZM9.08383 5.48029L8.38916 7.39391L11.2091 8.41759L11.9038 6.50397L9.08383 5.48029ZM15.4799 5.48062C14.3956 2.49149 10.168 2.49148 9.08371 5.48062L11.9039 6.50363C11.9446 6.3914 12.0001 6.33656 12.0497 6.30379C12.1077 6.26548 12.1885 6.23877 12.2818 6.23877C12.3752 6.23877 12.456 6.26548 12.514 6.30379C12.5636 6.33656 12.619 6.3914 12.6597 6.50363L15.4799 5.48062ZM16.1745 7.39391L15.4798 5.48029L12.6599 6.50397L13.3545 8.41759L16.1745 7.39391ZM21.9086 13.128C19.2425 12.1599 17.1424 10.0606 16.1745 7.39398L13.3545 8.41752C14.6257 11.9199 17.3839 14.6767 20.8847 15.9478L21.9086 13.128ZM23.8221 13.8226L21.9085 13.1279L20.8848 15.9479L22.7984 16.6425L23.8221 13.8226ZM23.8218 20.2187C26.8109 19.1344 26.8109 14.9068 23.8218 13.8225L22.7988 16.6427C22.911 16.6834 22.9659 16.7388 22.9986 16.7884C23.0369 16.8464 23.0636 16.9272 23.0636 17.0206C23.0636 17.1139 23.0369 17.1947 22.9986 17.2527C22.9659 17.3024 22.911 17.3578 22.7988 17.3985L23.8218 20.2187Z" fill="url(#paint0_linear_1_910)" style="" mask="url(#path-1-inside-1_1_910)"/>
<defs>
<linearGradient id="paint0_linear_1_910" x1="0.576923" y1="17.5958" x2="31.943" y2="8.52152" gradientUnits="userSpaceOnUse">
<stop stop-color="#20D9FC" style="stop-color:#20D9FC;stop-color:color(display-p3 0.1255 0.8510 0.9882);stop-opacity:1;"/>
<stop offset="0.5" stop-color="#F345FF" style="stop-color:#F345FF;stop-color:color(display-p3 0.9548 0.2707 1.0000);stop-opacity:1;"/>
<stop offset="1" stop-color="#FFE849" style="stop-color:#FFE849;stop-color:color(display-p3 1.0000 0.9098 0.2863);stop-opacity:1;"/>
</linearGradient>
</defs>
</svg>
