<svg width="24" height="20" viewBox="0 0 24 20" fill="none" xmlns="http://www.w3.org/2000/svg">
<path d="M12.1658 0.666504C12.7864 0.669934 14.3393 0.685007 15.9892 0.751356L16.5741 0.776964C18.2353 0.855923 19.8951 0.990814 20.7182 1.22125C21.8163 1.53094 22.6793 2.43458 22.971 3.58004C23.4355 5.39898 23.4936 8.94913 23.5008 9.80826L23.5018 9.98629V9.99877C23.5018 9.99877 23.5018 10.0031 23.5018 10.0114L23.5008 10.1894C23.4936 11.0485 23.4355 14.5987 22.971 16.4176C22.6753 17.5673 21.8122 18.471 20.7182 18.7764C19.8951 19.0068 18.2353 19.1417 16.5741 19.2207L15.9892 19.2462C14.3393 19.3126 12.7864 19.3277 12.1658 19.3312L11.8934 19.3321H11.8813C11.8813 19.3321 11.8773 19.3321 11.8692 19.3321L11.5971 19.3312C10.2835 19.3239 4.79122 19.2643 3.04441 18.7764C1.94638 18.4667 1.08335 17.5631 0.791615 16.4176C0.327178 14.5987 0.269123 11.0485 0.261871 10.1894V9.80826C0.269123 8.94913 0.327178 5.39898 0.791615 3.58004C1.08739 2.43034 1.95042 1.52671 3.04441 1.22125C4.79122 0.733272 10.2835 0.673761 11.5971 0.666504H12.1658ZM9.55724 5.91549V14.0821L16.5295 9.99877L9.55724 5.91549Z" fill="white"/>
</svg>
